<?xml version="1.0" encoding="utf-8"?>
<!-- Generator: Adobe Illustrator 16.0.0, SVG Export Plug-In . SVG Version: 6.00 Build 0)  -->
<!DOCTYPE svg PUBLIC "-//W3C//DTD SVG 1.1//EN" "http://www.w3.org/Graphics/SVG/1.1/DTD/svg11.dtd">
<svg version="1.1" id="Capa_1" xmlns="http://www.w3.org/2000/svg" xmlns:xlink="http://www.w3.org/1999/xlink" x="0px" y="0px"
	 width="70.57px" height="68.81px" viewBox="0 0 70.57 68.81" enable-background="new 0 0 70.57 68.81" xml:space="preserve">
<g>
	<path fill="#9F8079" d="M67.012,68.81c-0.851-16.459-2.642-37.566-7.859-41.815C44,14.65,18.471,19.51,10.698,31.98
		c-3.435,5.51-4.947,23.816-5.62,36.83H67.012z"/>
	<path fill="#422C22" d="M46.555,21.311c0,0,3.32-6.628,10.922-5.158c7.602,1.468,11.797,16.885,8.978,21.984
		c-2.821,5.102-10.56,4.313-11.902,2.689c-1.345-1.627,0.077-12.237-2.465-17.171C52.087,23.655,49.097,22.158,46.555,21.311z"/>
	<path fill="#422C22" d="M24.372,21.164c0,0-4.032-6.703-11.634-5.232C5.135,17.399-1.132,32.65,1.689,37.748
		c2.821,5.1,9.99,4.549,11.393,2.986c2.079-2.322,2.606-12.129,5.147-17.065C18.229,23.669,21.135,21.973,24.372,21.164z"/>
	<path fill="#D6BAC1" d="M39.762,41.215c0,0,0.68,8.609-2.906,8.475c-3.963-0.146-2.774-8.033-2.774-8.033
		S36.99,42.467,39.762,41.215z"/>
	<ellipse fill="#1F1813" cx="47.752" cy="36.791" rx="1.453" ry="1.623"/>
	<path fill="#1B0E10" d="M39.696,36.717c0,1.252-0.888,2.58-3.039,2.58c-2.152,0-3.104-1.4-3.104-2.652
		c0-1.254,0.754-2.212,2.906-2.212C39.167,34.432,39.696,35.465,39.696,36.717z"/>
	<path fill="#5B3C32" d="M27.082,31.189c-3.302-1.475-10.148,4.79-6.737,10.026C24.572,47.701,34.824,34.646,27.082,31.189z"/>
	<path fill="#B48080" d="M36.867,41.883c0,0,0.054,0.365,0.089,0.912c0.011,0.273,0.045,0.594,0.041,0.936
		c0.021,0.338,0.042,0.695,0.064,1.055c0.007,0.357,0.014,0.717,0.021,1.055c0.004,0.336-0.015,0.652-0.02,0.924
		c-0.022,0.543-0.065,0.912-0.065,0.912l-0.004,0.027c-0.015,0.129-0.119,0.219-0.234,0.203c-0.089-0.014-0.159-0.088-0.177-0.182
		c0,0-0.073-0.357-0.143-0.906c-0.027-0.275-0.071-0.596-0.098-0.941c-0.022-0.346-0.045-0.715-0.069-1.082
		c-0.013-0.371-0.018-0.74-0.021-1.084c0.009-0.342,0.055-0.66,0.073-0.932c0.056-0.545,0.123-0.908,0.123-0.908
		c0.023-0.127,0.138-0.211,0.251-0.184C36.787,41.709,36.852,41.789,36.867,41.883z"/>
	<ellipse fill="#1F1813" cx="25.165" cy="36.938" rx="1.453" ry="1.621"/>
	<path fill="#1F1813" d="M36.591,42.061c-0.22,0-0.396-0.197-0.396-0.441v-3.098c0-0.242,0.177-0.441,0.396-0.441
		c0.219,0,0.396,0.199,0.396,0.441v3.098C36.987,41.863,36.81,42.061,36.591,42.061z"/>
	<path fill="#1F1813" d="M36.689,42.061c-4.123,0-5.803-2.619-5.873-2.732c-0.125-0.201-0.081-0.475,0.1-0.615
		c0.179-0.139,0.426-0.092,0.55,0.109c0.066,0.104,1.543,2.355,5.224,2.355c3.72,0,5.313-2.342,5.328-2.365
		c0.132-0.197,0.38-0.236,0.554-0.092c0.177,0.145,0.213,0.42,0.084,0.617C42.581,39.449,40.805,42.061,36.689,42.061z"/>
</g>
</svg>
