<?xml version="1.0" encoding="utf-8"?>
<!-- Generator: Adobe Illustrator 16.0.0, SVG Export Plug-In . SVG Version: 6.00 Build 0)  -->
<!DOCTYPE svg PUBLIC "-//W3C//DTD SVG 1.1//EN" "http://www.w3.org/Graphics/SVG/1.1/DTD/svg11.dtd">
<svg version="1.1" id="Capa_1" xmlns="http://www.w3.org/2000/svg" xmlns:xlink="http://www.w3.org/1999/xlink" x="0px" y="0px"
	 width="175.829px" height="137.813px" viewBox="0 0 175.829 137.813" enable-background="new 0 0 175.829 137.813"
	 xml:space="preserve">
<g>
	<g>
		<g>
			<path fill="#FFFFFF" d="M167.852,30.765c-4.428-4.427-9.768-6.641-16.025-6.641h-21.074l-4.516-12.041
				c-1.121-2.892-3.172-5.387-6.154-7.482s-6.037-3.144-9.166-3.144H65.583c-3.131,0-6.184,1.048-9.166,3.144
				c-2.98,2.097-5.031,4.592-6.154,7.484l-4.514,12.04H24.674c-6.258,0-11.602,2.214-16.027,6.641
				c-4.428,4.428-6.641,9.771-6.641,16.026v67.861c0,6.258,2.213,11.601,6.641,16.025c4.426,4.428,9.77,6.643,16.027,6.643h127.15
				c6.256,0,11.597-2.215,16.025-6.643c4.428-4.426,6.639-9.768,6.639-16.025V46.792C174.491,40.535,172.278,35.193,167.852,30.765z
				 M113.426,100.838c-6.975,6.974-15.365,10.462-25.178,10.462c-9.812,0-18.203-3.488-25.178-10.462
				c-6.975-6.972-10.46-15.367-10.46-25.177c0-9.813,3.486-18.203,10.46-25.178c6.975-6.975,15.365-10.462,25.178-10.462
				c9.811,0,18.203,3.489,25.178,10.462c6.975,6.975,10.461,15.364,10.461,25.178C123.887,85.47,120.401,93.865,113.426,100.838z"/>
			<path fill="#FFFFFF" d="M88.249,50.16c-7.025,0-13.031,2.494-18.02,7.482c-4.986,4.988-7.481,10.994-7.481,18.02
				s2.495,13.03,7.481,18.019c4.988,4.987,10.994,7.481,18.02,7.481s13.031-2.494,18.02-7.481
				c4.988-4.988,7.482-10.993,7.482-18.019c0-7.024-2.494-13.03-7.482-18.02C101.28,52.654,95.274,50.16,88.249,50.16z"/>
		</g>
	</g>
</g>
</svg>
