<?xml version="1.0" encoding="utf-8"?>
<!-- Generator: Adobe Illustrator 16.0.0, SVG Export Plug-In . SVG Version: 6.00 Build 0)  -->
<!DOCTYPE svg PUBLIC "-//W3C//DTD SVG 1.1//EN" "http://www.w3.org/Graphics/SVG/1.1/DTD/svg11.dtd">
<svg version="1.1" id="Capa_1" xmlns="http://www.w3.org/2000/svg" xmlns:xlink="http://www.w3.org/1999/xlink" x="0px" y="0px"
	 width="92.667px" height="80px" viewBox="0 0 92.667 80" enable-background="new 0 0 92.667 80" xml:space="preserve">
<g>
	<path fill="#FFFFFF" d="M581.693,1030.032c-16.888,0-31.573-3.826-42.467-11.064c-11.23-7.463-17.891-18.262-19.811-32.115h32.727
		c0.409,0.635,0.938,1.6,1.24,2.162c2.713,5.57,9.943,14.582,28.311,14.582c8.948,0,15.738-1.582,20.754-4.838
		c5.76-3.734,8.932-9.588,8.932-16.477c0-5.773-2.482-13.709-14.31-18.732c-6.181-2.623-14.134-4.215-22.554-5.896
		c-12.67-2.535-27.03-5.406-37.662-12.145c-11.266-7.139-16.514-17.621-16.514-32.988c0-15.289,5.959-27.297,17.711-35.689
		c10.888-7.777,26.388-12.061,43.643-12.061c15.158,0,29.153,3.896,39.408,10.971c10.957,7.561,17.473,18.391,19.38,32.207h-32.632
		c-0.418-0.689-0.938-1.709-1.214-2.262c-4.098-9.072-13.397-14.48-24.942-14.48c-20.601,0-27.941,11.01-27.941,21.314
		c0,5.871,2.501,13.934,14.413,19.006c6.267,2.666,14.31,4.242,22.826,5.908c12.612,2.473,26.907,5.271,37.444,11.943
		c11.158,7.061,16.355,17.518,16.355,32.904c0,15.572-6,27.646-17.836,35.885C615.963,1025.817,599.889,1030.032,581.693,1030.032z"
		/>
	<path fill="#FFFFFF" d="M601.607,1076.276c-0.119,0-0.24-0.002-0.359-0.006c-3.605-0.096-7.02-1.762-9.363-4.57l-13.624-16.332
		l-14.477,15.58c-2.442,2.627-5.728,4.074-9.253,4.074c-0.117,0-0.237,0-0.356-0.004c-3.369-0.09-6.511-1.492-8.842-3.951
		c-2.331-2.457-3.565-5.67-3.477-9.045c0.16-5.979,4.532-11.078,10.397-12.127l15.066-2.691l2.443-193.049l-14.813-3.469
		c-5.8-1.357-9.894-6.682-9.735-12.656c0.088-3.324,1.449-6.43,3.832-8.746c2.379-2.314,5.509-3.588,8.814-3.588
		c0.115,0,0.232,0.002,0.349,0.006c3.609,0.096,7.025,1.764,9.372,4.576l13.627,16.334l14.475-15.586
		c2.443-2.629,5.729-4.078,9.252-4.078c0.111,0,0.225,0.002,0.335,0.004c3.394,0.09,6.536,1.492,8.864,3.947
		c2.328,2.457,3.563,5.672,3.472,9.053c-0.163,6.158-4.704,11.271-10.796,12.164l-15.639,2.287l-2.462,193.729l15.405,3.098
		c6.037,1.213,10.3,6.563,10.135,12.719c-0.088,3.32-1.447,6.426-3.83,8.742c-2.377,2.313-5.506,3.586-8.811,3.586H601.607z"/>
</g>
<g>
	<g>
		<path fill="#015656" d="M49.332,15.343c2.619-8.188,9.613-13.267,15.626-11.347c6.017,1.922,8.769,10.115,6.153,18.304
			c-2.614,8.188-9.611,13.27-15.624,11.348C49.477,31.728,46.719,23.532,49.332,15.343z"/>
		
			<ellipse transform="matrix(0.3043 -0.9526 0.9526 0.3043 18.1652 103.6769)" fill="#015656" cx="80.061" cy="39.402" rx="14.894" ry="10.34"/>
		<path fill="#015656" d="M38.197,34.197c5.702-1.732,8.036-9.959,5.21-18.376C40.581,7.401,33.66,1.978,27.956,3.712
			c-5.702,1.732-8.036,9.957-5.21,18.376C25.575,30.507,32.489,35.928,38.197,34.197z"/>
		<path fill="#015656" d="M23.562,36.171c-2.703-8.003-9.298-13.161-14.73-11.522c-5.436,1.64-7.646,9.456-4.946,17.457
			c2.703,8.003,9.298,13.161,14.73,11.521C24.046,51.988,26.265,44.173,23.562,36.171z"/>
		<path fill="#015656" d="M47.208,35.956h-1.174c0,0-23.265,3.831-23.152,30.625c-0.07,15.735,13.014,8.962,13.014,8.962
			s5.531-5.6,10.142-5.6l1.171-0.121c4.608,0,10.143,5.558,10.143,5.558s13.086,6.923,13.012-8.812
			C70.476,39.772,47.208,35.956,47.208,35.956z"/>
	</g>
</g>
</svg>
