<?xml version="1.0" encoding="utf-8"?>
<!-- Generator: Adobe Illustrator 16.0.0, SVG Export Plug-In . SVG Version: 6.00 Build 0)  -->
<!DOCTYPE svg PUBLIC "-//W3C//DTD SVG 1.1//EN" "http://www.w3.org/Graphics/SVG/1.1/DTD/svg11.dtd">
<svg version="1.1" id="Capa_1" xmlns="http://www.w3.org/2000/svg" xmlns:xlink="http://www.w3.org/1999/xlink" x="0px" y="0px"
	 width="150.292px" height="71.345px" viewBox="0 0 150.292 71.345" enable-background="new 0 0 150.292 71.345"
	 xml:space="preserve">
<path fill="#FFFFFF" d="M149.345,64.929l-14.582-41.796c-0.467-1.51-2.121-2.732-3.699-2.732h-4.838
	c-0.543-3.052-2.68-6.401-9.584-5.868c0,0-6.986-15.726-22.605-8.101c0,0-14.387-11.436-25.898,1.431c0,0-12.33-11.914-18.496-0.953
	c0,0-14.386,0.953-12.743,9.529c0,0-9.783-1.619-11.83,3.962h-5.508c-1.578,0-3.225,1.226-3.676,2.738L1.733,65.337
	c-0.451,1.513,0.879,3.57,2.457,3.57h142.717C148.487,68.907,149.808,66.438,149.345,64.929z M101.372,52.241
	c0,4.026-3.264,7.291-7.291,7.291c-3.52,0-6.457-2.494-7.143-5.811H69.318c-0.685,3.316-3.622,5.811-7.141,5.811
	c-4.026,0-7.292-3.265-7.292-7.291c0-2.182,0.962-4.134,2.48-5.471c-1.519-1.336-2.48-3.288-2.48-5.469
	c0-4.027,3.266-7.292,7.292-7.292c3.6,0,6.583,2.609,7.178,6.039h17.548c0.596-3.43,3.578-6.039,7.178-6.039
	c4.027,0,7.291,3.265,7.291,7.292c0,2.181-0.961,4.133-2.479,5.469C100.411,48.107,101.372,50.06,101.372,52.241z"/>
</svg>
