<?xml version="1.0" encoding="utf-8"?>
<!-- Generator: Adobe Illustrator 16.0.0, SVG Export Plug-In . SVG Version: 6.00 Build 0)  -->
<!DOCTYPE svg PUBLIC "-//W3C//DTD SVG 1.1//EN" "http://www.w3.org/Graphics/SVG/1.1/DTD/svg11.dtd">
<svg version="1.1" id="Capa_1" xmlns="http://www.w3.org/2000/svg" xmlns:xlink="http://www.w3.org/1999/xlink" x="0px" y="0px"
	 width="139.637px" height="134.906px" viewBox="0 0 139.637 134.906" enable-background="new 0 0 139.637 134.906"
	 xml:space="preserve">
<path fill="#DC676E" stroke="#FFFFFF" stroke-width="2" stroke-miterlimit="10" d="M128.608,102.702
	c8.119-8.343,7.938-21.688-0.402-29.806c-7.453-7.255-18.895-7.868-27.041-1.963L64.817,35.555
	c5.681-8.304,4.762-19.721-2.692-26.977c-8.342-8.12-21.688-7.94-29.808,0.402c-4.396,4.517-6.337,10.499-5.887,16.327
	c-5.838-0.292-11.767,1.81-16.163,6.327c-8.12,8.342-7.938,21.688,0.403,29.808c7.289,7.095,18.398,7.849,26.504,2.358l36.5,35.528
	c-5.269,8.249-4.214,19.335,3.076,26.431c8.342,8.119,21.686,7.939,29.806-0.403c4.397-4.517,6.339-10.499,5.89-16.327
	C118.284,109.321,124.212,107.219,128.608,102.702z"/>
</svg>
