<?xml version="1.0" encoding="utf-8"?>
<!-- Generator: Adobe Illustrator 16.0.0, SVG Export Plug-In . SVG Version: 6.00 Build 0)  -->
<!DOCTYPE svg PUBLIC "-//W3C//DTD SVG 1.1//EN" "http://www.w3.org/Graphics/SVG/1.1/DTD/svg11.dtd">
<svg version="1.1" id="Capa_1" xmlns="http://www.w3.org/2000/svg" xmlns:xlink="http://www.w3.org/1999/xlink" x="0px" y="0px"
	 width="70.57px" height="68.81px" viewBox="0 0 70.57 68.81" enable-background="new 0 0 70.57 68.81" xml:space="preserve">
<g>
	<path fill="#FFFFFF" d="M57.131,43.568v-14.63c0-10.305-7.166-18.917-16.781-21.18c-0.057-2.709-2.259-4.884-4.978-4.884
		s-4.936,2.185-4.991,4.884c-9.612,2.263-16.779,10.875-16.779,21.18v14.63c-3.619,0-6.554,2.933-6.554,6.554v4.625h56.637v-4.625
		C63.685,46.501,60.752,43.568,57.131,43.568z"/>
	<path fill="#FFFFFF" d="M35.372,65.525c4.339,0,7.97-2.923,9.113-6.907H26.244C27.391,62.603,31.021,65.525,35.372,65.525z"/>
</g>
</svg>
