<?xml version="1.0" encoding="utf-8"?>
<!-- Generator: Adobe Illustrator 16.0.0, SVG Export Plug-In . SVG Version: 6.00 Build 0)  -->
<!DOCTYPE svg PUBLIC "-//W3C//DTD SVG 1.1//EN" "http://www.w3.org/Graphics/SVG/1.1/DTD/svg11.dtd">
<svg version="1.1" id="Capa_1" xmlns="http://www.w3.org/2000/svg" xmlns:xlink="http://www.w3.org/1999/xlink" x="0px" y="0px"
	 width="70.57px" height="68.81px" viewBox="0 0 70.57 68.81" enable-background="new 0 0 70.57 68.81" xml:space="preserve">
<path fill="#FFFFFF" d="M31.321,15.577L31.321,15.577c2.021,2.201,2.021,5.77,0,7.97l-3.864,4.209
	c-0.595,0.645-0.175,1.747,0.664,1.747h30.231c2.859,0,5.178,2.523,5.178,5.636l0,0c0,3.112-2.318,5.636-5.178,5.636H28.121
	c-0.839,0-1.257,1.103-0.664,1.747l3.864,4.208c2.021,2.201,2.021,5.77,0,7.971l0,0c-2.021,2.201-5.298,2.201-7.32,0L9.03,38.4
	c-1.653-1.801-1.653-4.723,0-6.523l14.971-16.3C26.023,13.376,29.3,13.376,31.321,15.577z"/>
</svg>
