<?xml version="1.0" encoding="utf-8"?>
<!-- Generator: Adobe Illustrator 16.0.0, SVG Export Plug-In . SVG Version: 6.00 Build 0)  -->
<!DOCTYPE svg PUBLIC "-//W3C//DTD SVG 1.1//EN" "http://www.w3.org/Graphics/SVG/1.1/DTD/svg11.dtd">
<svg version="1.1" id="Capa_1" xmlns="http://www.w3.org/2000/svg" xmlns:xlink="http://www.w3.org/1999/xlink" x="0px" y="0px"
	 width="216.959px" height="227.866px" viewBox="0 0 216.959 227.866" enable-background="new 0 0 216.959 227.866"
	 xml:space="preserve">
<path id="XMLID_81_" fill="#FFFFFF" d="M13.601,85.881c0,0,3.227,2.494,8.563,4.905c1.36,3.08,3.837,8.252,5.476,9.085
	c0,0,0-3.722,0.891-6.687c4.938,1.502,10.814,2.469,17.197,1.858c2.422-0.233,4.685-0.393,6.775-0.489
	c13.587-0.613,20.518,1.468,21.454,3.906c0.729,1.925,9.594,12.58-1.938,16.234c-4.271,1.342-11.357,1.729-22.699,0.34
	c0,0-17.344,0.898-26.438-2.327c-0.479-0.821-0.602-2.05,0.322-3.544c0.09-0.146-0.193-0.269-0.33-0.167l-3.064,2.285
	c-0.5,0.289-5.797,3.437-5.863,7.043c-0.055,3.346,14.064,7.716,15.847,15.22c0.217,0.955,1.39,1.275,2.058,0.563
	c2.822-2.978,8.32-7.346,15.031-5.395c3.775,1.095,8.605,1.949,13.393,2.932c0.023,0.001,0.044,0.014,0.066,0.016
	c5.049,1.045,10.02,2.23,13.627,4.002c-0.121-0.043-0.24-0.089-0.358-0.133c1.181,0.557,2.222,1.173,3.085,1.863
	c0.612,0.481,1.13,1.01,1.547,1.576c4.541,6.193,5.295,12.383,1.875,17c-0.102,0.139-0.197,0.304-0.298,0.449
	c0.011-0.007,0.021-0.012,0.03-0.019c-2.52,3.628-4.5,9.396-4.902,12.858c-0.076,0.633,0.77,0.915,1.094,0.357
	c0.791-1.387,1.939-2.986,2.941-2.955c5.521,8.12,4.506,15.484,0.941,21.594c-1.235,2.117-2.782,4.074-4.463,5.865
	c-0.558,0.579-1.125,1.146-1.706,1.701c-0.876,0.838-1.788,1.639-2.716,2.418c-0.242,0.199-0.484,0.398-0.727,0.592
	c-0.508,0.412-1.031,0.804-1.553,1.197c-0.849,0.633-1.686,1.235-2.482,1.775c-0.094,0.062-0.187,0.123-0.281,0.186
	c-0.816,0.547-1.582,1.032-2.3,1.473c-0.946,0.568-1.897,1.125-2.877,1.637c0.032-0.006,0.063-0.012,0.093-0.018
	c-0.029,0.017-0.068,0.039-0.098,0.055c1.07-0.197,2.135-0.416,3.195-0.652c8.464-1.805,16.498-4.867,23.885-8.994
	c0.955-0.523,1.9-1.066,2.838-1.624c-5.442,12.151-14.967,23.263-24.55,30.212c-0.46,0.33-0.92,0.656-1.382,0.977
	c12.726-2.053,25.381-9.438,34.908-19.678c7.035-7.188,12.155-15.748,14.723-25.135c-0.215,2.801-0.648,5.556-1.272,8.254
	c-4.468,14.904-13.838,27.818-25.542,37.057c11.277-2.854,21.68-8.419,30.34-15.984c7.364-6.245,13.246-13.715,17.174-21.998
	c0.471-0.926,0.918-1.865,1.346-2.814c-0.018,0.232-0.035,0.465-0.055,0.693c-1.141,13.725-7.799,25.968-17.031,34.781
	c12.441-4.378,23.043-13.354,29.324-25.39c1.766-3.242,3.207-6.687,4.282-10.294c-0.149,3.914-0.771,7.83-1.89,11.665
	c-1.49,4.813-3.686,9.371-6.217,13.313c6.689-3.728,12.595-9.101,17.051-15.974c3.314-5.115,5.532-10.621,6.73-16.246
	c0.512-2.162,0.9-4.375,1.135-6.643c0.092-0.877,0.179-1.74,0.264-2.594c0.119,4.674-0.192,9.423-1.025,14.203
	c-0.834,4.789-2.126,9.385-3.821,13.748l0.001,0.002c0.24-0.228,0.477-0.459,0.713-0.69c0.4-0.393,0.788-0.8,1.18-1.203
	c10.816-10.657,18.125-24.968,19.854-41.171l0.134-0.139c0.238,3.019,0.249,6.105-0.018,9.225c-0.117,1.378-0.289,2.73-0.502,4.078
	c-0.359,2.262-0.858,4.488-1.484,6.651l-0.032,0.118c0.417-0.467,1.019-1.199,1.749-2.117c1.262-1.491,2.455-3.046,3.582-4.652
	c0.701-0.955,1.381-1.921,2.01-2.906c3.468-5.369,5.941-11.199,7.418-17.223c0.951-3.514,1.62-7.152,1.975-10.898
	c0.956,2.719,1.752,5.504,2.358,8.34c0.069-0.188,0.127-0.384,0.194-0.574c0.006,0.027,0.014,0.055,0.02,0.081
	c0.609-1.628,1.125-3.307,1.512-5.052c3.041-13.479-1.626-26.892-11.083-35.645c-0.002-0.003-0.005-0.007-0.007-0.012
	c-0.463-1.052-1.246-1.922-2.277-2.634c4.301,0.729,13.41,7.979,13.41,7.979c-5.051-18.375-26.993-21.75-26.993-21.75
	c3.708-1.843,13.618-1.117,14.604-2.73c-0.027-0.057-0.037-0.08-0.055-0.125c-7.343-1.896-20.179-13.926-20.179-13.926l8.882-2.04
	c0.471-0.104,0.568-0.723,0.16-0.979c-3.122-1.909-11.907-7.554-16.736-13.334c-2.039-2.445-6.111-5.614-10.522-8.67
	c-1.534,2.029-3.11,3.682-3.624,4.209c0.525-1.817,3.949-14.302,2.336-25.78c-2.016-15.539-11.488-17.752-11.494-17.755h-0.001
	v0.002c0.087,1.161-0.075,2.322-0.4,3.481c-0.816,2.411-2.888,6.14-7.888,11.381c-1.92,1.92-3.967,3.782-5.912,5.556
	c-0.006-0.014-0.012-0.027-0.018-0.04l0.061-0.048c0,0-0.461-0.976-1.34-2.562c-2.211-4.24-4.781-7.859-7.262-10.83
	c-2.832-3.509-6.299-7.08-10.306-9.85c0,0,0.018,0.158,0.037,0.427l-0.048,2.63c-0.066,3.645-0.783,7.232-2.088,10.612
	c-0.061,0.129-0.115,0.262-0.178,0.39c-3.179,6.248-7.117,13.407-7.117,13.407h0.006l-0.009,0.015
	c-8.771,0.76-20.611,10.725-28.614,20.268c-8.014,9.542-5.064,6.003-22.141,8.885c-17.077,2.893-29.537-2.327-38.852-3.323
	C0.923,54.103,5.907,65.154,3.235,69.84C0.552,74.538,13.601,85.881,13.601,85.881z M91.712,55.31
	c2.692-1.599,1.129,3.645,1.102,3.697c-2.574,4.332-10.344,5.652-14.807,3.331C82.315,60.402,89.007,56.908,91.712,55.31z
	 M8.454,59.343c-0.113,0.156-0.26,0.331-0.396,0.506c-0.251,0.354-0.523,0.705-0.73,0.941c-0.209,0.247-0.363,0.388-0.363,0.388
	L6.742,61.18c0,0-0.011-0.144-0.021-0.398c-0.001-0.243-0.036-0.609,0.002-1.047c0.024-0.428,0.081-0.952,0.291-1.485
	c0.189-0.535,0.654-1.068,1.266-1.258c0.295-0.107,0.596-0.148,0.904-0.154c0.322-0.017,0.552,0.014,0.857,0.051
	c0.532,0.09,1.02,0.187,1.443,0.256c0.835,0.171,1.396,0.295,1.396,0.295l-0.029,0.218c0,0-0.662,0.528-1.58,0.824
	c-0.621,0.155-2.365,0.448-2.459,0.528C8.72,59.068,8.565,59.187,8.454,59.343z"/>
</svg>
