<?xml version="1.0" encoding="utf-8"?>
<!-- Generator: Adobe Illustrator 16.0.0, SVG Export Plug-In . SVG Version: 6.00 Build 0)  -->
<!DOCTYPE svg PUBLIC "-//W3C//DTD SVG 1.1//EN" "http://www.w3.org/Graphics/SVG/1.1/DTD/svg11.dtd">
<svg version="1.1" id="Capa_1" xmlns="http://www.w3.org/2000/svg" xmlns:xlink="http://www.w3.org/1999/xlink" x="0px" y="0px"
	 width="130px" height="126px" viewBox="0 0 130 126" enable-background="new 0 0 130 126" xml:space="preserve">
<path fill-rule="evenodd" clip-rule="evenodd" fill="#FFFFFF" d="M56.078,100.243c-1.721,0-3.228,1.291-3.228,2.904
	c0,0.32,0,0.645,0.106,0.967h21.398c0.106-0.322,0.106-0.646,0.106-0.967c0-1.613-1.506-2.904-3.225-2.904h-1.287V83.042h1.287
	c1.719,0,3.225-1.398,3.225-3.012c0-0.859-0.322-1.613-0.966-2.152c-0.97,0.217-1.827,0.432-2.798,0.539v-4.301
	c10.215-2.365,18.173-10.859,19.676-21.393c3.872-0.323,7.313-2.043,10.217-4.947c9.998-10.108,9.676-32.792,9.676-33.655
	c0-1.826-1.508-3.224-3.227-3.224h-16.45V3.908c0-0.86-0.753-1.614-1.614-1.614H39.413c-0.861,0-1.615,0.754-1.615,1.614v6.989
	H21.35c-1.721,0-3.228,1.398-3.228,3.224c0,0.863-0.322,23.547,9.57,33.655c2.902,2.904,6.451,4.624,10.322,4.947
	c1.505,10.534,9.462,19.028,19.674,21.393v4.516l-0.321-0.107c-1.184-0.107-2.364-0.43-3.55-0.646
	c-0.643,0.539-0.967,1.293-0.967,2.152c0,1.613,1.506,3.012,3.228,3.012h1.289v17.201H56.078z M68.119,27.026l-4.193-11.613
	l-4.193,11.613v0.107h-0.106H46.079l10.858,7.095l0.216,0.107l-0.11,0.216L52.85,46.162l10.967-7.202l0.108-0.107l0.105,0.107
	l11.076,7.202L70.806,34.55v-0.216l0.107-0.107l10.969-7.095H68.333h-0.106L68.119,27.026z M86.718,122.175v-10.963
	c0-0.646-0.537-1.078-1.183-1.078h-3.333c-0.643,0-1.182-0.428-1.182-1.072v-1.828c0-0.646-0.538-1.076-1.291-1.076h-8.493H56.078
	h-8.602c-0.753,0-1.29,0.43-1.29,1.076v1.828c0,0.645-0.538,1.072-1.182,1.072h-3.227c-0.751,0-1.291,0.432-1.291,1.078v10.963
	c0,0.539,0.539,0.969,1.291,0.969h43.758C86.181,123.144,86.718,122.714,86.718,122.175L86.718,122.175z M24.144,20.683h13.011
	v28.705c-2.044-0.321-3.765-1.29-5.377-2.903C26.081,40.68,24.359,27.884,24.144,20.683L24.144,20.683z M103.061,20.683
	c-0.322,7.202-2.043,19.998-7.633,25.801c-1.611,1.614-3.439,2.582-5.376,2.903V20.683H103.061z"/>
</svg>
