<?xml version="1.0" encoding="utf-8"?>
<!-- Generator: Adobe Illustrator 16.0.0, SVG Export Plug-In . SVG Version: 6.00 Build 0)  -->
<!DOCTYPE svg PUBLIC "-//W3C//DTD SVG 1.1//EN" "http://www.w3.org/Graphics/SVG/1.1/DTD/svg11.dtd">
<svg version="1.1" id="Capa_1" xmlns="http://www.w3.org/2000/svg" xmlns:xlink="http://www.w3.org/1999/xlink" x="0px" y="0px"
	 width="70.57px" height="68.81px" viewBox="0 0 70.57 68.81" enable-background="new 0 0 70.57 68.81" xml:space="preserve">
<g>
	<path fill="#FFFFFF" d="M44.046,54.908c0,1.094-0.89,1.976-1.99,1.976H28.254c-1.103,0-1.993-0.882-1.993-1.976l0,0
		c0-1.09,0.89-1.972,1.993-1.972h13.802C43.156,52.937,44.046,53.818,44.046,54.908L44.046,54.908z"/>
	<path fill="#FFFFFF" d="M44.046,61.358c0,1.094-0.89,1.978-1.99,1.978H28.254c-1.103,0-1.993-0.884-1.993-1.978l0,0
		c0-1.088,0.89-1.974,1.993-1.974h13.802C43.156,59.385,44.046,60.271,44.046,61.358L44.046,61.358z"/>
	<path fill="#FFFFFF" d="M31.305,60.988c-0.069-0.006-0.137-0.018-0.206-0.03c-0.374,0.664-0.591,1.429-0.591,2.244
		c0,2.545,2.082,4.607,4.646,4.607c2.564,0,4.645-2.063,4.645-4.607c0-0.787-0.2-1.531-0.553-2.177
		C36.6,61.174,33.953,61.287,31.305,60.988z"/>
	<path fill="#FFFFFF" d="M55.592,21.341c0-11.195-9.151-20.272-20.438-20.272c-11.29,0-20.438,9.077-20.438,20.272
		c0,4.23,1.306,8.155,3.539,11.404l0,0c0,0,7.211,10.449,7.211,16.638h9.689h9.69c0-6.189,7.209-16.638,7.209-16.638l0,0
		C54.286,29.496,55.592,25.571,55.592,21.341z M48.748,31.272c0,0-5.802,8.404-5.802,13.382h-7.792h-7.792
		c0-4.979-5.802-13.382-5.802-13.382h0.001c-1.797-2.613-2.849-5.77-2.849-9.17c0-9.004,7.362-16.306,16.441-16.306
		c9.077,0,16.438,7.301,16.438,16.306c0,3.4-1.051,6.557-2.848,9.17H48.748z"/>
	<g>
		<path fill="#FFFFFF" d="M22.995,26.873c-0.985,0-1.803-0.772-1.841-1.759c-0.004-0.154-0.13-3.857,1.556-7.84
			c1.593-3.766,5.128-8.5,12.92-9.639c1.006-0.149,1.945,0.542,2.095,1.541c0.147,0.999-0.548,1.929-1.554,2.075
			c-4.893,0.719-8.275,3.22-10.063,7.44c-1.37,3.241-1.271,6.253-1.27,6.281c0.04,1.01-0.752,1.861-1.77,1.899
			C23.045,26.873,23.02,26.873,22.995,26.873L22.995,26.873z"/>
	</g>
	<path fill="#FFFFFF" d="M42.309,49.383H29.446c0,0-17.984-25.021-13.034-32.14C35.154-9.712,48.854,5.636,51.679,14.028
		C55.592,25.648,42.309,49.383,42.309,49.383z"/>
</g>
</svg>
