<?xml version="1.0" encoding="utf-8"?>
<!-- Generator: Adobe Illustrator 16.0.0, SVG Export Plug-In . SVG Version: 6.00 Build 0)  -->
<!DOCTYPE svg PUBLIC "-//W3C//DTD SVG 1.1//EN" "http://www.w3.org/Graphics/SVG/1.1/DTD/svg11.dtd">
<svg version="1.1" id="Capa_1" xmlns="http://www.w3.org/2000/svg" xmlns:xlink="http://www.w3.org/1999/xlink" x="0px" y="0px"
	 width="216.959px" height="227.866px" viewBox="0 0 216.959 227.866" enable-background="new 0 0 216.959 227.866"
	 xml:space="preserve">
<g>
	<path fill="#FFFFFF" d="M643.484,1099.076c-16.888,0-31.573-3.826-42.467-11.064c-11.23-7.463-17.891-18.262-19.811-32.115h32.727
		c0.409,0.635,0.938,1.6,1.24,2.162c2.713,5.57,9.943,14.582,28.311,14.582c8.948,0,15.738-1.582,20.754-4.838
		c5.76-3.734,8.932-9.588,8.932-16.477c0-5.773-2.482-13.709-14.31-18.732c-6.181-2.623-14.134-4.215-22.554-5.896
		c-12.67-2.535-27.03-5.406-37.662-12.145c-11.266-7.139-16.514-17.621-16.514-32.988c0-15.289,5.959-27.297,17.711-35.689
		c10.888-7.777,26.388-12.061,43.643-12.061c15.158,0,29.153,3.896,39.408,10.971c10.957,7.561,17.473,18.391,19.38,32.207h-32.632
		c-0.418-0.689-0.938-1.709-1.214-2.262c-4.098-9.072-13.397-14.48-24.942-14.48c-20.601,0-27.941,11.01-27.941,21.314
		c0,5.871,2.501,13.934,14.413,19.006c6.267,2.666,14.31,4.242,22.826,5.908c12.612,2.473,26.907,5.271,37.444,11.943
		c11.158,7.061,16.355,17.518,16.355,32.904c0,15.572-6,27.646-17.836,35.885C677.755,1094.861,661.681,1099.076,643.484,1099.076z"
		/>
	<path fill="#FFFFFF" d="M663.398,1145.32c-0.119,0-0.24-0.002-0.359-0.006c-3.605-0.096-7.02-1.762-9.363-4.57l-13.624-16.332
		l-14.477,15.58c-2.442,2.627-5.728,4.074-9.253,4.074c-0.117,0-0.237,0-0.356-0.004c-3.369-0.09-6.511-1.492-8.842-3.951
		c-2.331-2.457-3.565-5.67-3.477-9.045c0.16-5.979,4.532-11.078,10.397-12.127l15.066-2.691l2.443-193.049l-14.813-3.469
		c-5.8-1.357-9.894-6.682-9.735-12.656c0.088-3.324,1.449-6.43,3.832-8.746c2.379-2.314,5.509-3.588,8.814-3.588
		c0.115,0,0.232,0.002,0.349,0.006c3.609,0.096,7.025,1.764,9.372,4.576L643,915.656l14.475-15.586
		c2.443-2.629,5.729-4.078,9.252-4.078c0.111,0,0.225,0.002,0.335,0.004c3.394,0.09,6.536,1.492,8.864,3.947
		c2.328,2.457,3.563,5.672,3.472,9.053c-0.163,6.158-4.704,11.271-10.796,12.164l-15.639,2.287l-2.462,193.729l15.405,3.098
		c6.037,1.213,10.3,6.563,10.135,12.719c-0.088,3.32-1.447,6.426-3.83,8.742c-2.377,2.313-5.506,3.586-8.811,3.586H663.398z"/>
</g>
<g>
	<g>
		<g>
			<path fill="#FFFFFF" d="M197.293,68.649c-4.922-4.923-10.859-7.385-17.818-7.385h-23.432l-5.021-13.387
				c-1.247-3.216-3.526-5.99-6.843-8.32c-3.314-2.33-6.711-3.496-10.19-3.496H83.584c-3.48,0-6.877,1.166-10.191,3.496
				c-3.314,2.33-5.596,5.104-6.842,8.32l-5.021,13.387H38.099c-6.958,0-12.897,2.462-17.82,7.385
				c-4.922,4.922-7.384,10.861-7.384,17.818v75.452c0,6.959,2.461,12.898,7.384,17.818c4.922,4.924,10.862,7.385,17.82,7.385
				h141.374c6.957,0,12.895-2.461,17.818-7.385c4.923-4.92,7.382-10.859,7.382-17.818V86.468
				C204.676,79.511,202.214,73.571,197.293,68.649z M136.779,146.558c-7.754,7.756-17.084,11.633-27.992,11.633
				c-10.91,0-20.242-3.877-27.996-11.633c-7.755-7.752-11.63-17.084-11.63-27.992c0-10.911,3.877-20.24,11.63-27.995
				c7.754-7.754,17.084-11.631,27.996-11.631c10.906,0,20.238,3.877,27.992,11.631c7.754,7.755,11.633,17.084,11.633,27.995
				C148.412,129.474,144.533,138.806,136.779,146.558z"/>
			<path fill="#FFFFFF" d="M108.787,90.21c-7.812,0-14.49,2.774-20.038,8.32c-5.544,5.547-8.317,12.224-8.317,20.036
				c0,7.811,2.773,14.488,8.317,20.033c5.548,5.547,12.226,8.318,20.038,8.318c7.809,0,14.488-2.771,20.033-8.318
				c5.546-5.545,8.319-12.223,8.319-20.033c0-7.811-2.773-14.488-8.319-20.036C123.275,92.984,116.596,90.21,108.787,90.21z"/>
		</g>
	</g>
</g>
</svg>
