<?xml version="1.0" encoding="utf-8"?>
<!-- Generator: Adobe Illustrator 16.0.0, SVG Export Plug-In . SVG Version: 6.00 Build 0)  -->
<!DOCTYPE svg PUBLIC "-//W3C//DTD SVG 1.1//EN" "http://www.w3.org/Graphics/SVG/1.1/DTD/svg11.dtd">
<svg version="1.1" id="Capa_1" xmlns="http://www.w3.org/2000/svg" xmlns:xlink="http://www.w3.org/1999/xlink" x="0px" y="0px"
	 width="150.292px" height="111.696px" viewBox="0 0 150.292 111.696" enable-background="new 0 0 150.292 111.696"
	 xml:space="preserve">
<path fill="#FFFFFF" d="M135.704,35.787c0-20.045-19.425-34.595-60.399-34.595c-40.977,0-60.401,14.55-60.401,34.595
	c0,18.453,9.757,32.357,49.678,34.453c-0.016,0.224-0.045,0.444-0.045,0.672c0,3.979,2.178,7.455,5.398,9.318
	c-1.405,1.388-2.278,3.313-2.278,5.439c0,0.61,0.079,1.203,0.216,1.773h-2.189c-0.659-3.809-3.972-6.705-7.969-6.705
	c-4.472,0-8.097,3.626-8.097,8.096c0,2.423,1.068,4.59,2.754,6.074c-1.686,1.482-2.754,3.65-2.754,6.072
	c0,4.472,3.625,8.097,8.097,8.097c3.906,0,7.169-2.768,7.929-6.452h19.566c0.761,3.685,4.022,6.452,7.93,6.452
	c4.473,0,8.097-3.625,8.097-8.097c0-2.422-1.068-4.59-2.753-6.072c1.685-1.484,2.753-3.651,2.753-6.074
	c0-4.47-3.624-8.096-8.097-8.096c-3.996,0-7.309,2.896-7.97,6.705h-2.432c0.136-0.57,0.215-1.163,0.215-1.773
	c0-2.127-0.872-4.052-2.277-5.439c3.22-1.863,5.397-5.339,5.397-9.318c0-0.217-0.02-0.43-0.033-0.644
	C126.342,68.271,135.704,54.324,135.704,35.787z M43.005,59.621c-3.024,0-5.475-2.451-5.475-5.475s2.45-5.475,5.475-5.475
	c3.022,0,5.474,2.451,5.474,5.475S46.027,59.621,43.005,59.621z M79.914,85.669c0,0.628-0.129,1.227-0.357,1.773h-8.505
	c-0.229-0.547-0.356-1.146-0.356-1.773c0-1.852,1.103-3.44,2.68-4.173c0.626,0.113,1.27,0.182,1.93,0.182
	c0.659,0,1.302-0.068,1.93-0.182C78.811,82.229,79.914,83.818,79.914,85.669z M81.793,70.912c0,3.577-2.911,6.488-6.488,6.488
	c-3.578,0-6.489-2.911-6.489-6.488c0-0.168,0.013-0.332,0.025-0.497c2.174,0.065,4.403,0.109,6.747,0.109
	c2.134,0,4.17-0.038,6.161-0.092C81.762,70.593,81.793,70.748,81.793,70.912z M69.567,58.988c0-3.168,2.566-5.736,5.736-5.736
	s5.737,2.568,5.737,5.736c0,3.169-2.567,5.737-5.737,5.737S69.567,62.157,69.567,58.988z M106.712,60.755
	c-3.025,0-5.474-2.452-5.474-5.475c0-3.023,2.448-5.476,5.474-5.476c3.023,0,5.475,2.452,5.475,5.476
	C112.187,58.303,109.735,60.755,106.712,60.755z M74.737,44.831c-33.839,0-46.223-11.62-46.223-11.62s7.724-11.602,46.978-11.602
	c39.257,0,46.601,11.602,46.601,11.602S108.575,44.831,74.737,44.831z"/>
</svg>
