<?xml version="1.0" encoding="utf-8"?>
<!-- Generator: Adobe Illustrator 16.0.0, SVG Export Plug-In . SVG Version: 6.00 Build 0)  -->
<!DOCTYPE svg PUBLIC "-//W3C//DTD SVG 1.1//EN" "http://www.w3.org/Graphics/SVG/1.1/DTD/svg11.dtd">
<svg version="1.1" id="Capa_1" xmlns="http://www.w3.org/2000/svg" xmlns:xlink="http://www.w3.org/1999/xlink" x="0px" y="0px"
	 width="216.959px" height="227.866px" viewBox="0 0 216.959 227.866" enable-background="new 0 0 216.959 227.866"
	 xml:space="preserve">
<g>
	<path fill="#FFFFFF" d="M62.094,68.52c2.698-5.544,3.899-12.126,3.767-18.603c-0.045-2.152,1.03-2.688,2.598-1.219l5.203,4.896
		c1.568,1.471,4.432,1.944,6.389,1.06l1.922-0.867c1.953-0.882,2.648-3.095,1.465-4.898c-13.609-20.893-26.294-26.187-32.436-27.5
		c-2.102-0.456-5.609-0.612-7.747-0.427c-11.819,1.033-25.908,11.122-31.696,23.042C-3.51,75.068,0.572,95.472,14.524,102.246
		C28.481,109.013,47.034,99.586,62.094,68.52z"/>
	<path fill="#FFFFFF" d="M204.558,44.006C198.772,32.089,184.68,22,172.864,20.964c-2.145-0.187-5.648-0.026-7.75,0.43
		c-6.143,1.313-18.834,6.602-32.439,27.5c-1.18,1.801-0.484,4.012,1.477,4.898l1.917,0.871c1.96,0.881,4.815,0.401,6.387-1.067
		l5.206-4.892c1.564-1.475,2.637-0.936,2.594,1.219c-0.128,6.471,1.072,13.059,3.766,18.601
		c15.064,31.068,33.611,40.496,47.568,33.728C215.546,95.478,219.616,75.074,204.558,44.006z"/>
	<path fill="#FFFFFF" d="M106.874,224.507h1.198c-0.215,0.014-0.399-0.025-0.602-0.014
		C107.263,224.482,107.089,224.521,106.874,224.507z"/>
	<path fill="#FFFFFF" d="M121.571,188.814c-3.908,0.195-10.029,0.473-14.906,0.586c-3.582,0.078-9.443-0.254-13.307-0.521
		c-2.15-0.133-4.075,1.459-4.156,3.619c-0.4,9.377,0.477,32.439,18.264,31.996c17.801,0.443,18.664-22.619,18.276-31.996
		C125.652,190.347,123.722,188.701,121.571,188.814z"/>
	<path fill="#FFFFFF" d="M162.352,96.076c-4.963-5.811-10.025-13.645-14.872-24.178c-0.808-1.746-1.494-3.585-2.066-5.492
		c-0.919-3.11-2.182-4.931-3.271-3.946c-1.082,0.984-6.259-0.268-11.572-2.798c-5.314-2.523-8.757-5.925-7.697-7.596l1.91-3.021
		c1.314-2.055,2.617-3.988,3.907-5.804c2.254-3.146-1.176-10.745-8.194-16.767c-7.039-6.013-18.772-6.001-25.545-0.025
		c-6.763,5.968-9.982,13.527-7.697,16.714c1.311,1.836,2.645,3.799,3.97,5.882c0,0,0.857,1.359,1.916,3.021
		c1.058,1.671-2.383,5.072-7.698,7.596c-5.312,2.526-10.49,3.782-11.58,2.798s-2.352,0.836-3.271,3.946
		c-0.564,1.907-1.258,3.746-2.062,5.492C63.59,82.626,58.423,90.56,53.368,96.396c-10.442,12.08-25.719,20.162-26.922,26.471
		c-0.74,3.875-1.131,7.73-1.131,11.549c0,29.891,15.96,43.951,39.825,50.068c20.849,5.34,38.647-3.277,38.647-12.473v-16.652
		c0-4.354-3.13-9.535-6.66-12.084c-2.755-1.986-5.166-4.141-5.517-5.691c-0.153-0.686-0.007-1.316,0.402-1.816
		c0.213-0.263,0.489-0.467,0.79-0.6c0.512-0.221,4.383-1.273,8.72-1.594c1.858-0.145,3.83-0.199,5.8-0.184h0.275
		c1.962-0.016,3.943,0.039,5.793,0.184c4.342,0.32,8.207,1.379,8.721,1.594c0.303,0.133,0.576,0.337,0.789,0.6
		c0.416,0.5,0.56,1.131,0.401,1.816c-0.349,1.551-2.764,3.705-5.518,5.691c-3.532,2.541-6.657,7.725-6.657,12.084
		c0,0,0,7.451,0,16.652c0,9.195,17.8,17.813,38.639,12.473c23.879-6.111,39.834-20.178,39.834-50.068
		c0-3.861-0.361-7.74-1.049-11.611C187.45,116.451,172.575,108.035,162.352,96.076z M89.891,99.197c-2.911,0-5.271-2.358-5.271-5.27
		c0-2.91,2.359-5.27,5.271-5.27c2.908,0,5.274,2.352,5.274,5.27C95.157,96.838,92.799,99.197,89.891,99.197z M129.222,99.197
		c-2.908,0-5.275-2.358-5.275-5.27c0-2.91,2.354-5.27,5.275-5.27c2.908,0,5.274,2.352,5.274,5.27
		C134.496,96.838,132.13,99.197,129.222,99.197z"/>
</g>
</svg>
