<?xml version="1.0" encoding="utf-8"?>
<!-- Generator: Adobe Illustrator 16.0.0, SVG Export Plug-In . SVG Version: 6.00 Build 0)  -->
<!DOCTYPE svg PUBLIC "-//W3C//DTD SVG 1.1//EN" "http://www.w3.org/Graphics/SVG/1.1/DTD/svg11.dtd">
<svg version="1.1" id="Capa_1" xmlns="http://www.w3.org/2000/svg" xmlns:xlink="http://www.w3.org/1999/xlink" x="0px" y="0px"
	 width="216.959px" height="227.866px" viewBox="0 0 216.959 227.866" enable-background="new 0 0 216.959 227.866"
	 xml:space="preserve">
<g>
	<path fill="#FFFFFF" d="M643.484,1099.076c-16.888,0-31.573-3.826-42.467-11.064c-11.23-7.463-17.891-18.262-19.811-32.115h32.727
		c0.409,0.635,0.938,1.6,1.24,2.162c2.713,5.57,9.943,14.582,28.311,14.582c8.948,0,15.738-1.582,20.754-4.838
		c5.76-3.734,8.932-9.588,8.932-16.477c0-5.773-2.482-13.709-14.31-18.732c-6.181-2.623-14.134-4.215-22.554-5.896
		c-12.67-2.535-27.03-5.406-37.662-12.145c-11.266-7.139-16.514-17.621-16.514-32.988c0-15.289,5.959-27.297,17.711-35.689
		c10.888-7.777,26.388-12.061,43.643-12.061c15.158,0,29.153,3.896,39.408,10.971c10.957,7.561,17.473,18.391,19.38,32.207h-32.632
		c-0.418-0.689-0.938-1.709-1.214-2.262c-4.098-9.072-13.397-14.48-24.942-14.48c-20.601,0-27.941,11.01-27.941,21.314
		c0,5.871,2.501,13.934,14.413,19.006c6.267,2.666,14.31,4.242,22.826,5.908c12.612,2.473,26.907,5.271,37.444,11.943
		c11.158,7.061,16.355,17.518,16.355,32.904c0,15.572-6,27.646-17.836,35.885C677.755,1094.861,661.681,1099.076,643.484,1099.076z"
		/>
	<path fill="#FFFFFF" d="M663.398,1145.32c-0.119,0-0.24-0.002-0.359-0.006c-3.605-0.096-7.02-1.762-9.363-4.57l-13.624-16.332
		l-14.477,15.58c-2.442,2.627-5.728,4.074-9.253,4.074c-0.117,0-0.237,0-0.356-0.004c-3.369-0.09-6.511-1.492-8.842-3.951
		c-2.331-2.457-3.565-5.67-3.477-9.045c0.16-5.979,4.532-11.078,10.397-12.127l15.066-2.691l2.443-193.049l-14.813-3.469
		c-5.8-1.357-9.894-6.682-9.735-12.656c0.088-3.324,1.449-6.43,3.832-8.746c2.379-2.314,5.509-3.588,8.814-3.588
		c0.115,0,0.232,0.002,0.349,0.006c3.609,0.096,7.025,1.764,9.372,4.576L643,915.656l14.475-15.586
		c2.443-2.629,5.729-4.078,9.252-4.078c0.111,0,0.225,0.002,0.335,0.004c3.394,0.09,6.536,1.492,8.864,3.947
		c2.328,2.457,3.563,5.672,3.472,9.053c-0.163,6.158-4.704,11.271-10.796,12.164l-15.639,2.287l-2.462,193.729l15.405,3.098
		c6.037,1.213,10.3,6.563,10.135,12.719c-0.088,3.32-1.447,6.426-3.83,8.742c-2.377,2.313-5.506,3.586-8.811,3.586H663.398z"/>
</g>
<path fill-rule="evenodd" clip-rule="evenodd" fill="#FFFFFF" d="M108.045,208.617c-20.164-0.234-40.328-0.481-60.492-0.686
	c-1.958-0.021-3.558-0.572-4.928-2.016c-10.355-10.904-7.174-28.811,6.319-35.361c3.059-1.484,6.278-2.314,9.713-2.143
	c0.47,0.023,0.96,0.037,1.41-0.069c0.931-0.222,1.427-0.79,0.971-1.767c-0.418-0.895-0.962-1.73-1.393-2.621
	c-6.374-13.195,2.885-29.648,17.483-30.986c2.672-0.244,5.374-0.158,8.063-0.204c2.463-0.042,2.907-0.741,2.025-3.077
	c-0.875-2.322-2.024-4.612-2.442-7.021c-0.781-4.508,0.507-8.648,4.021-11.65c2.486-2.125,5.387-3.779,8.167-5.543
	c1.829-1.16,3.828-2.055,5.654-3.22c3.379-2.154,5.214-5.245,5.257-9.317c0.005-0.471,0.036-0.945,0.104-1.41
	c0.238-1.619,1.116-2.287,2.75-2.118c11.479,1.185,21.275,11.281,21.863,22.74c0.32,6.244-0.848,12.214-4.146,17.654
	c-1.05,1.73-0.648,2.683,1.377,2.916c1.673,0.193,3.396,0.182,5.075,0.031c10.864-0.969,20.542,5.359,23.643,15.652
	c1.749,5.809,1.413,11.471-1.764,16.798c-0.169,0.282-0.329,0.575-0.461,0.876c-0.698,1.602-0.231,2.326,1.528,2.283
	c5.29-0.127,10.063,1.346,14.275,4.566c10.979,8.393,11.531,24.951,1.105,34.051c-0.512,0.447-1.324,0.766-2.002,0.777
	c-14.871,0.248-29.744,0.471-44.616,0.641c-6.186,0.07-12.373,0.012-18.56,0.012C108.045,208.474,108.045,208.545,108.045,208.617z"
	/>
<path fill-rule="evenodd" clip-rule="evenodd" fill="#FFFFFF" d="M115.023,72.222c-2.66,1.273-4.892,0.816-6.985-0.716
	c-4.046-2.96-5.652-8.269-4.188-13.747c0.893-3.336,2.657-6.228,4.58-9.043c1.729-2.532,3.537-5.016,5.146-7.623
	c2.265-3.666,3.719-7.641,3.688-12.02c-0.063-8.968-8.244-12.718-13.984-10.033c-0.112,0.052-0.263,0.024-0.609,0.047
	c1.964-2.488,4.473-3.45,7.344-3.575c5.969-0.259,11.324,3.513,13.453,9.565c2.271,6.457,1.399,12.717-1.908,18.554
	c-1.684,2.972-3.911,5.646-5.983,8.385c-1.563,2.066-3.313,3.989-4.894,6.044c-0.623,0.812-1.07,1.778-1.492,2.721
	C107.025,65.609,108.447,71.077,115.023,72.222z"/>
</svg>
