<?xml version="1.0" encoding="utf-8"?>
<!-- Generator: Adobe Illustrator 16.0.0, SVG Export Plug-In . SVG Version: 6.00 Build 0)  -->
<!DOCTYPE svg PUBLIC "-//W3C//DTD SVG 1.1//EN" "http://www.w3.org/Graphics/SVG/1.1/DTD/svg11.dtd">
<svg version="1.1" id="Capa_1" xmlns="http://www.w3.org/2000/svg" xmlns:xlink="http://www.w3.org/1999/xlink" x="0px" y="0px"
	 width="272.667px" height="180px" viewBox="0 0 272.667 180" enable-background="new 0 0 272.667 180" xml:space="preserve">
<g>
	<path fill="#FFFFFF" d="M666.36,1083.365c-16.888,0-31.573-3.826-42.467-11.064c-11.23-7.463-17.891-18.262-19.811-32.115h32.727
		c0.409,0.635,0.938,1.6,1.24,2.162c2.713,5.57,9.943,14.582,28.311,14.582c8.948,0,15.738-1.582,20.754-4.838
		c5.76-3.734,8.932-9.588,8.932-16.477c0-5.773-2.482-13.709-14.31-18.732c-6.181-2.623-14.134-4.215-22.554-5.896
		c-12.67-2.535-27.03-5.406-37.662-12.145c-11.266-7.139-16.514-17.621-16.514-32.988c0-15.289,5.959-27.297,17.711-35.689
		c10.888-7.777,26.388-12.061,43.643-12.061c15.158,0,29.153,3.896,39.408,10.971c10.957,7.561,17.473,18.391,19.38,32.207h-32.632
		c-0.418-0.689-0.938-1.709-1.214-2.262c-4.098-9.072-13.397-14.48-24.942-14.48c-20.601,0-27.941,11.01-27.941,21.314
		c0,5.871,2.501,13.934,14.413,19.006c6.267,2.666,14.31,4.242,22.826,5.908c12.612,2.473,26.907,5.271,37.444,11.943
		c11.158,7.061,16.355,17.518,16.355,32.904c0,15.572-6,27.646-17.836,35.885C700.63,1079.15,684.556,1083.365,666.36,1083.365z"/>
	<path fill="#FFFFFF" d="M686.274,1129.609c-0.119,0-0.24-0.002-0.359-0.006c-3.605-0.096-7.02-1.762-9.363-4.57l-13.624-16.332
		l-14.477,15.58c-2.442,2.627-5.728,4.074-9.253,4.074c-0.117,0-0.237,0-0.356-0.004c-3.369-0.09-6.511-1.492-8.842-3.951
		c-2.331-2.457-3.565-5.67-3.477-9.045c0.16-5.979,4.532-11.078,10.397-12.127l15.066-2.691l2.443-193.049l-14.813-3.469
		c-5.8-1.357-9.894-6.682-9.735-12.656c0.088-3.324,1.449-6.43,3.832-8.746c2.379-2.314,5.509-3.588,8.814-3.588
		c0.115,0,0.232,0.002,0.349,0.006c3.609,0.096,7.025,1.764,9.372,4.576l13.627,16.334l14.475-15.586
		c2.443-2.629,5.729-4.078,9.252-4.078c0.111,0,0.225,0.002,0.335,0.004c3.394,0.09,6.536,1.492,8.864,3.947
		c2.328,2.457,3.563,5.672,3.472,9.053c-0.163,6.158-4.704,11.271-10.796,12.164l-15.639,2.287l-2.462,193.729l15.405,3.098
		c6.037,1.213,10.3,6.563,10.135,12.719c-0.088,3.32-1.447,6.426-3.83,8.742c-2.377,2.313-5.506,3.586-8.811,3.586H686.274z"/>
</g>
<g>
	<polygon fill-rule="evenodd" clip-rule="evenodd" fill="#017864" points="153.745,62.918 188.66,97.834 190.036,137.641 
		170.682,171.18 93.532,94.03 133.009,69.09 	"/>
	<polygon fill-rule="evenodd" clip-rule="evenodd" fill="#026551" points="177.482,86.655 188.66,97.834 190.036,137.641 
		170.682,171.18 131.82,132.319 	"/>
	<path fill-rule="evenodd" clip-rule="evenodd" fill="#035B45" d="M167.137,67.48l9.85,9.85c0.225-0.34,0.484-0.66,0.784-0.96
		l21.728-21.727c2.43-2.429,6.402-2.429,8.832,0l1.162,1.162c2.427,2.428,2.427,6.401,0,8.829l-21.727,21.729
		c-0.301,0.298-0.621,0.561-0.961,0.785l8.449,8.45c9.459,9.459,7.131,23.078,0,34.393l-18.191,30.152l6.546-18.223
		c4.442-12.367,9.039-24.596-0.47-34.105l-26.464-26.461c-9.506-9.507-21.731-4.914-34.104-0.469l-19.34,6.948l29.514-20.353
		C143.755,59.888,157.679,58.022,167.137,67.48L167.137,67.48z M205.27,58.865c-1.332-1.33-3.488-1.33-4.821,0
		c-1.33,1.332-1.33,3.489,0,4.82c1.333,1.33,3.489,1.33,4.821,0C206.601,62.354,206.601,60.197,205.27,58.865z"/>
	<path fill-rule="evenodd" clip-rule="evenodd" fill="#004D3A" d="M208.913,55.225l0.58,0.581c2.427,2.428,2.427,6.401,0,8.829
		l-21.727,21.729c-0.301,0.298-0.621,0.561-0.961,0.785l8.449,8.45c9.459,9.459,7.131,23.078,0,34.393l-18.191,30.152l6.546-18.223
		c4.442-12.367,9.039-24.596-0.47-34.105l-13.41-13.408l30.723-30.721c1.33,1.33,3.486,1.33,4.818,0
		c1.331-1.331,1.331-3.487,0-4.818L208.913,55.225z"/>
</g>
<g>
	<path fill-rule="evenodd" clip-rule="evenodd" fill="#572E00" d="M165.897,156.555c3.146,0,5.711-2.564,5.711-5.711
		s-2.565-5.711-5.711-5.711s-5.711,2.564-5.711,5.711S162.751,156.555,165.897,156.555z"/>
	<g>
		<path fill-rule="evenodd" clip-rule="evenodd" fill="#572E00" d="M133.387,128.055c2.185-2.459,5.949-2.68,8.407-0.496
			c2.459,2.186,2.68,5.951,0.494,8.406c-2.185,2.461-5.949,2.682-8.407,0.496C131.423,134.278,131.202,130.512,133.387,128.055z"/>
		<circle fill-rule="evenodd" clip-rule="evenodd" fill="#572E00" cx="124.894" cy="133.956" r="2.962"/>
		<circle fill-rule="evenodd" clip-rule="evenodd" fill="#572E00" cx="131.65" cy="118.456" r="3.881"/>
	</g>
	<g>
		<circle fill-rule="evenodd" clip-rule="evenodd" fill="#572E00" cx="148.155" cy="147.613" r="2.963"/>
		<circle fill-rule="evenodd" clip-rule="evenodd" fill="#572E00" cx="135.124" cy="151.62" r="3.882"/>
	</g>
</g>
<polygon fill-rule="evenodd" clip-rule="evenodd" fill="#DD676E" points="76.084,68.158 131.207,123.282 99.99,168.2 31.167,99.377 
	"/>
<polygon fill-rule="evenodd" clip-rule="evenodd" fill="#DD676E" points="103.647,95.723 131.207,123.282 99.99,168.2 
	65.579,133.79 "/>
<polygon fill-rule="evenodd" clip-rule="evenodd" fill="#B43B48" points="62.863,131.073 99.537,99.831 68.295,136.504 "/>
<polygon fill-rule="evenodd" clip-rule="evenodd" fill="#B43B48" points="99.527,99.842 68.295,136.504 65.579,133.79 "/>
<polygon fill-rule="evenodd" clip-rule="evenodd" fill="#B43B48" points="43.531,111.741 78.034,88.556 48.145,116.356 "/>
<polygon fill-rule="evenodd" clip-rule="evenodd" fill="#B43B48" points="86.341,154.553 109.528,120.049 81.727,149.938 "/>
<path fill-rule="evenodd" clip-rule="evenodd" fill="#834C00" d="M190.547,8.818L190.547,8.818c1.579,1.578,1.579,4.16,0,5.738
	l-71.811,71.812l2.115,2.113c1.082,1.08,1.082,2.848,0,3.927l-5.737,5.738l16.764,16.764c2.158,2.158,2.158,5.693,0,7.852h-0.002
	c-2.159,2.16-5.691,2.16-7.853,0l-47.42-47.421c-2.161-2.159-2.161-5.692,0-7.853v-0.001c2.158-2.158,5.693-2.158,7.852,0
	l16.765,16.765l5.737-5.737c1.079-1.081,2.848-1.081,3.927,0L113,80.628l71.811-71.81C186.389,7.24,188.969,7.24,190.547,8.818z"/>
<path fill-rule="evenodd" clip-rule="evenodd" fill="#804400" d="M190.55,8.818c1.576,1.579,1.576,4.16-0.003,5.738l-71.811,71.812
	l2.115,2.113c1.082,1.08,1.082,2.848,0,3.927l-5.737,5.738l16.764,16.764c2.158,2.158,2.158,5.693,0,7.852h-0.002
	c-2.159,2.16-5.691,2.16-7.853,0l-23.71-23.709L190.55,8.818z"/>
</svg>
