<?xml version="1.0" encoding="utf-8"?>
<!-- Generator: Adobe Illustrator 16.0.0, SVG Export Plug-In . SVG Version: 6.00 Build 0)  -->
<!DOCTYPE svg PUBLIC "-//W3C//DTD SVG 1.1//EN" "http://www.w3.org/Graphics/SVG/1.1/DTD/svg11.dtd">
<svg version="1.1" id="Capa_1" xmlns="http://www.w3.org/2000/svg" xmlns:xlink="http://www.w3.org/1999/xlink" x="0px" y="0px"
	 width="150.292px" height="126.316px" viewBox="0 0 150.292 126.316" enable-background="new 0 0 150.292 126.316"
	 xml:space="preserve">
<path fill="#FFFFFF" d="M129.271,56.058c0,0-27.252-12.109-32.097-14.534c0,0-3.635-10.826-14.078-14.685
	c0,0,3.556-15.064-1.06-17.411c0,0-16.347,10.294-17.562,13.322c0,0-1.213-17.562-4.241-20.587c0,0-20.587,13.322-19.379,32.097
	c0,0-14.368,21.573-21.636,44.485l66.215,45.805c0.174-15.082-0.985-31.207-3.996-41.24c-5.45-18.168,0-3.029,0-3.029
	s34.466,8.465,41.159-12.674c-0.122-0.039-0.242-0.084-0.356-0.15c-0.206-0.127-0.428-0.252-0.642-0.395
	c-0.227-0.127-0.412-0.314-0.593-0.504l-0.531-0.572c-0.159-0.199-0.251-0.443-0.372-0.652c-0.119-0.213-0.213-0.426-0.305-0.627
	c-0.101-0.195-0.104-0.416-0.155-0.598c-0.144-0.756-0.173-1.247-0.173-1.247s0.266,0.448,0.561,1.1
	c0.081,0.16,0.121,0.355,0.254,0.516c0.124,0.164,0.255,0.334,0.371,0.516c0.126,0.18,0.238,0.377,0.379,0.551l0.484,0.486
	c0.155,0.172,0.306,0.346,0.507,0.461c0.187,0.127,0.359,0.27,0.533,0.402c0.181,0.121,0.372,0.213,0.544,0.32
	c0.035,0.021,0.07,0.033,0.106,0.053C125.09,66.272,130.8,62.662,129.271,56.058z M86.27,43.633c-1.777,0-5.878-0.047-5.878-1.7
	c0-1.652,4.101-4.286,5.878-4.286c1.774,0,3.215,1.34,3.215,2.993S88.044,43.633,86.27,43.633z"/>
</svg>
