<?xml version="1.0" encoding="utf-8"?>
<!-- Generator: Adobe Illustrator 16.0.0, SVG Export Plug-In . SVG Version: 6.00 Build 0)  -->
<!DOCTYPE svg PUBLIC "-//W3C//DTD SVG 1.1//EN" "http://www.w3.org/Graphics/SVG/1.1/DTD/svg11.dtd">
<svg version="1.1" id="Capa_1" xmlns="http://www.w3.org/2000/svg" xmlns:xlink="http://www.w3.org/1999/xlink" x="0px" y="0px"
	 width="216.959px" height="227.866px" viewBox="0 0 216.959 227.866" enable-background="new 0 0 216.959 227.866"
	 xml:space="preserve">
<g>
	<path fill="#FFFFFF" d="M643.484,1099.076c-16.888,0-31.573-3.826-42.467-11.064c-11.23-7.463-17.891-18.262-19.811-32.115h32.727
		c0.409,0.635,0.938,1.6,1.24,2.162c2.713,5.57,9.943,14.582,28.311,14.582c8.948,0,15.738-1.582,20.754-4.838
		c5.76-3.734,8.932-9.588,8.932-16.477c0-5.773-2.482-13.709-14.31-18.732c-6.181-2.623-14.134-4.215-22.554-5.896
		c-12.67-2.535-27.03-5.406-37.662-12.145c-11.266-7.139-16.514-17.621-16.514-32.988c0-15.289,5.959-27.297,17.711-35.689
		c10.888-7.777,26.388-12.061,43.643-12.061c15.158,0,29.153,3.896,39.408,10.971c10.957,7.561,17.473,18.391,19.38,32.207h-32.632
		c-0.418-0.689-0.938-1.709-1.214-2.262c-4.098-9.072-13.397-14.48-24.942-14.48c-20.601,0-27.941,11.01-27.941,21.314
		c0,5.871,2.501,13.934,14.413,19.006c6.267,2.666,14.31,4.242,22.826,5.908c12.612,2.473,26.907,5.271,37.444,11.943
		c11.158,7.061,16.355,17.518,16.355,32.904c0,15.572-6,27.646-17.836,35.885C677.755,1094.861,661.681,1099.076,643.484,1099.076z"
		/>
	<path fill="#FFFFFF" d="M663.398,1145.32c-0.119,0-0.24-0.002-0.359-0.006c-3.605-0.096-7.02-1.762-9.363-4.57l-13.624-16.332
		l-14.477,15.58c-2.442,2.627-5.728,4.074-9.253,4.074c-0.117,0-0.237,0-0.356-0.004c-3.369-0.09-6.511-1.492-8.842-3.951
		c-2.331-2.457-3.565-5.67-3.477-9.045c0.16-5.979,4.532-11.078,10.397-12.127l15.066-2.691l2.443-193.049l-14.813-3.469
		c-5.8-1.357-9.894-6.682-9.735-12.656c0.088-3.324,1.449-6.43,3.832-8.746c2.379-2.314,5.509-3.588,8.814-3.588
		c0.115,0,0.232,0.002,0.349,0.006c3.609,0.096,7.025,1.764,9.372,4.576L643,915.656l14.475-15.586
		c2.443-2.629,5.729-4.078,9.252-4.078c0.111,0,0.225,0.002,0.335,0.004c3.394,0.09,6.536,1.492,8.864,3.947
		c2.328,2.457,3.563,5.672,3.472,9.053c-0.163,6.158-4.704,11.271-10.796,12.164l-15.639,2.287l-2.462,193.729l15.405,3.098
		c6.037,1.213,10.3,6.563,10.135,12.719c-0.088,3.32-1.447,6.426-3.83,8.742c-2.377,2.313-5.506,3.586-8.811,3.586H663.398z"/>
</g>
<g>
	<path fill="#FFFFFF" d="M110.031,184.363c-14.957,0-27.964-3.389-37.612-9.8c-9.947-6.61-15.846-16.174-17.546-28.444h28.985
		c0.362,0.563,0.831,1.418,1.099,1.915c2.402,4.934,8.806,12.916,25.074,12.916c7.925,0,13.939-1.401,18.381-4.285
		c5.102-3.308,7.911-8.491,7.911-14.593c0-5.113-2.198-12.143-12.674-16.592c-5.474-2.322-12.519-3.732-19.976-5.222
		c-11.221-2.245-23.939-4.789-33.356-10.756c-9.978-6.324-14.626-15.607-14.626-29.217c0-13.542,5.278-24.176,15.686-31.61
		c9.643-6.889,23.372-10.682,38.654-10.682c13.426,0,25.82,3.451,34.903,9.718c9.704,6.695,15.475,16.288,17.164,28.524h-28.902
		c-0.369-0.609-0.829-1.513-1.074-2.002c-3.629-8.036-11.866-12.826-22.091-12.826c-18.246,0-24.747,9.751-24.747,18.879
		c0,5.2,2.214,12.34,12.765,16.833c5.55,2.361,12.674,3.757,20.217,5.233c11.17,2.189,23.831,4.669,33.163,10.578
		c9.883,6.253,14.486,15.516,14.486,29.144c0,13.791-5.313,24.485-15.797,31.783C140.384,180.629,126.148,184.363,110.031,184.363z"
		/>
	<path fill="#FFFFFF" d="M127.668,225.321c-0.104,0-0.211-0.002-0.318-0.005c-3.193-0.085-6.217-1.561-8.292-4.048l-12.066-14.466
		l-12.822,13.799c-2.163,2.328-5.073,3.609-8.194,3.609c-0.105,0-0.211,0-0.316-0.004c-2.984-0.08-5.766-1.321-7.831-3.499
		c-2.064-2.177-3.158-5.022-3.079-8.011c0.142-5.295,4.014-9.813,9.209-10.742l13.344-2.383L99.465,28.59l-13.12-3.072
		c-5.137-1.202-8.763-5.917-8.623-11.209c0.078-2.944,1.284-5.694,3.394-7.746c2.107-2.049,4.879-3.178,7.806-3.178
		c0.103,0,0.206,0.001,0.31,0.005c3.196,0.085,6.222,1.563,8.3,4.054l12.07,14.466l12.819-13.804
		c2.164-2.328,5.074-3.612,8.194-3.612c0.1,0,0.199,0.001,0.296,0.004c3.007,0.08,5.789,1.321,7.852,3.496
		c2.063,2.176,3.156,5.023,3.075,8.018c-0.145,5.454-4.167,9.983-9.563,10.773l-13.85,2.027l-2.181,171.582l13.644,2.744
		c5.348,1.074,9.122,5.813,8.977,11.265c-0.077,2.94-1.282,5.691-3.393,7.743c-2.105,2.048-4.877,3.176-7.804,3.176H127.668z"/>
</g>
</svg>
