<?xml version="1.0" encoding="utf-8"?>
<!-- Generator: Adobe Illustrator 16.0.0, SVG Export Plug-In . SVG Version: 6.00 Build 0)  -->
<!DOCTYPE svg PUBLIC "-//W3C//DTD SVG 1.1//EN" "http://www.w3.org/Graphics/SVG/1.1/DTD/svg11.dtd">
<svg version="1.1" id="Capa_1" xmlns="http://www.w3.org/2000/svg" xmlns:xlink="http://www.w3.org/1999/xlink" x="0px" y="0px"
	 width="130px" height="126px" viewBox="0 0 130 126" enable-background="new 0 0 130 126" xml:space="preserve">
<path fill="#FFFFFF" d="M119.218,95.232c7.373-7.573,7.208-19.688-0.363-27.059c-6.766-6.586-17.152-7.142-24.549-1.781
	L61.309,34.274c5.157-7.538,4.323-17.903-2.445-24.49c-7.572-7.372-19.689-7.208-27.06,0.365c-3.991,4.101-5.752,9.531-5.344,14.822
	c-5.3-0.265-10.682,1.643-14.674,5.744c-7.371,7.573-7.206,19.688,0.367,27.06c6.617,6.441,16.703,7.126,24.06,2.142L69.35,92.17
	c-4.784,7.489-3.825,17.554,2.792,23.996c7.573,7.37,19.688,7.206,27.059-0.367c3.992-4.101,5.754-9.531,5.348-14.822
	C109.847,101.242,115.228,99.333,119.218,95.232z"/>
</svg>
