<?xml version="1.0" encoding="utf-8"?>
<!-- Generator: Adobe Illustrator 16.0.0, SVG Export Plug-In . SVG Version: 6.00 Build 0)  -->
<!DOCTYPE svg PUBLIC "-//W3C//DTD SVG 1.1//EN" "http://www.w3.org/Graphics/SVG/1.1/DTD/svg11.dtd">
<svg version="1.1" id="Capa_1" xmlns="http://www.w3.org/2000/svg" xmlns:xlink="http://www.w3.org/1999/xlink" x="0px" y="0px"
	 width="272.667px" height="180px" viewBox="0 0 272.667 180" enable-background="new 0 0 272.667 180" xml:space="preserve">
<g>
	<path fill="#FFFFFF" d="M666.36,1083.365c-16.888,0-31.573-3.826-42.467-11.064c-11.23-7.463-17.891-18.262-19.811-32.115h32.727
		c0.409,0.635,0.938,1.6,1.24,2.162c2.713,5.57,9.943,14.582,28.311,14.582c8.948,0,15.738-1.582,20.754-4.838
		c5.76-3.734,8.932-9.588,8.932-16.477c0-5.773-2.482-13.709-14.31-18.732c-6.181-2.623-14.134-4.215-22.554-5.896
		c-12.67-2.535-27.03-5.406-37.662-12.145c-11.266-7.139-16.514-17.621-16.514-32.988c0-15.289,5.959-27.297,17.711-35.689
		c10.888-7.777,26.388-12.061,43.643-12.061c15.158,0,29.153,3.896,39.408,10.971c10.957,7.561,17.473,18.391,19.38,32.207h-32.632
		c-0.418-0.689-0.938-1.709-1.214-2.262c-4.098-9.072-13.397-14.48-24.942-14.48c-20.601,0-27.941,11.01-27.941,21.314
		c0,5.871,2.501,13.934,14.413,19.006c6.267,2.666,14.31,4.242,22.826,5.908c12.612,2.473,26.907,5.271,37.444,11.943
		c11.158,7.061,16.355,17.518,16.355,32.904c0,15.572-6,27.646-17.836,35.885C700.63,1079.15,684.556,1083.365,666.36,1083.365z"/>
	<path fill="#FFFFFF" d="M686.274,1129.609c-0.119,0-0.24-0.002-0.359-0.006c-3.605-0.096-7.02-1.762-9.363-4.57l-13.624-16.332
		l-14.477,15.58c-2.442,2.627-5.728,4.074-9.253,4.074c-0.117,0-0.237,0-0.356-0.004c-3.369-0.09-6.511-1.492-8.842-3.951
		c-2.331-2.457-3.565-5.67-3.477-9.045c0.16-5.979,4.532-11.078,10.397-12.127l15.066-2.691l2.443-193.049l-14.813-3.469
		c-5.8-1.357-9.894-6.682-9.735-12.656c0.088-3.324,1.449-6.43,3.832-8.746c2.379-2.314,5.509-3.588,8.814-3.588
		c0.115,0,0.232,0.002,0.349,0.006c3.609,0.096,7.025,1.764,9.372,4.576l13.627,16.334l14.475-15.586
		c2.443-2.629,5.729-4.078,9.252-4.078c0.111,0,0.225,0.002,0.335,0.004c3.394,0.09,6.536,1.492,8.864,3.947
		c2.328,2.457,3.563,5.672,3.472,9.053c-0.163,6.158-4.704,11.271-10.796,12.164l-15.639,2.287l-2.462,193.729l15.405,3.098
		c6.037,1.213,10.3,6.563,10.135,12.719c-0.088,3.32-1.447,6.426-3.83,8.742c-2.377,2.313-5.506,3.586-8.811,3.586H686.274z"/>
</g>
<polygon fill="#EFC3CA" points="248.985,85.192 212.272,95.716 197.685,111.404 177.7,104.815 148.634,48.321 189.118,42.293 
	219.568,32.097 "/>
<path fill="#ECB0BB" d="M140.641,134.16c-5.517-2.858-7.675-9.642-4.817-15.161l0,0c2.854-5.51,9.637-7.669,15.151-4.813
	l30.475,17.196c5.517,2.851,7.671,9.64,4.817,15.153l0,0c-2.854,5.515-9.637,7.666-15.149,4.815L140.641,134.16z"/>
<path fill="#ECB0BB" d="M130.06,151.107c-5.178-2.681-7.206-9.051-4.525-14.231l0,0c2.683-5.176,9.054-7.203,14.23-4.521
	l28.617,16.143c5.182,2.683,7.206,9.051,4.526,14.229l0,0c-2.683,5.182-9.049,7.205-14.231,4.527L130.06,151.107z"/>
<path fill="#ECB0BB" d="M70.879,40.669l26.614,9.919c0,0,23.596-4.701,24.945-4.924l15.508,15.498l36.383,16.564l26.463,13.959
	c0,0-4.125,11.874-13.695,24.552c-5.598,7.429-10.199,24.164-17.754,34.214c-5.344,7.106-7.153,13.934-16.278,12.225
	c-22.013-4.112-63.915-35.26-70.274-39.959c-0.18-0.138-11.732-16.188-11.732-16.188L37.333,89.618L70.879,40.669z"/>
<path fill="#ECB0BB" d="M152.745,117.063c-5.702-2.842-8.088-9.646-5.315-15.204l0,0c2.764-5.557,9.628-7.766,15.332-4.929
	l31.551,17.111c5.697,2.839,8.083,9.645,5.32,15.203l0,0c-2.766,5.563-9.635,7.769-15.334,4.93L152.745,117.063z"/>
<path fill="#ECB0BB" d="M161.493,101.033c-6.294-1.473-10.21-7.765-8.736-14.06l0,0c1.471-6.293,7.911-9.948,14.206-8.476
	l35.002,9.303c6.293,1.469,10.203,7.763,8.733,14.058l0,0c-1.474,6.293-7.768,10.206-14.06,8.737l-3.89-0.864L161.493,101.033z"/>
<path fill="#EFC3CA" d="M168.148,74.913L136.154,62.74l-13.484,3.636c-1.186,18.725-18.266,17.576-21.105,17.248
	c-2.844-0.324-1.555-7.243-1.555-7.243l10.479-30.842l35.09-8.28c7.628,1.469,40.31,5.518,40.31,5.518L168.148,74.913z"/>
<path fill="#EFC3CA" d="M99.439,138.93c-2.359,4.202-8.086,5.482-12.791,2.846l0,0c-4.711-2.635-6.615-8.183-4.256-12.396
	l7.699-13.757c2.357-4.208,8.081-5.484,12.787-2.849l0,0c4.711,2.635,6.615,8.185,4.26,12.397L99.439,138.93z"/>
<path fill="#EFC3CA" d="M116.924,148.177c-2.696,4.822-8.704,6.589-13.408,3.954l0,0c-4.71-2.636-6.335-8.679-3.638-13.498
	l8.823-15.76c2.699-4.822,8.704-6.596,13.415-3.956l0,0c4.705,2.636,6.333,8.677,3.637,13.499L116.924,148.177z"/>
<path fill="#EFC3CA" d="M134.356,157.425c-2.443,4.362-8.235,5.764-12.946,3.129l0,0c-4.703-2.631-6.541-8.312-4.102-12.673
	l7.989-14.26c2.446-4.362,8.235-5.764,12.946-3.134l0,0c4.71,2.64,6.544,8.313,4.101,12.678L134.356,157.425z"/>
<path fill="#EFC3CA" d="M150.162,166.583c-2.021,3.612-7.199,4.568-11.559,2.127l0,0c-4.352-2.44-6.249-7.353-4.227-10.967
	l6.621-11.813c2.018-3.614,7.196-4.568,11.553-2.127l0,0c4.359,2.442,6.25,7.351,4.225,10.96L150.162,166.583z"/>
<polygon fill="#478980" points="54.908,107.583 81.379,34.616 32.021,17.371 6.872,91.954 "/>
<polygon fill="#015656" points="193.191,34.723 218.927,101.968 269.261,83.761 242.438,17.371 "/>
<circle fill="none" cx="137.739" cy="83.458" r="118.992"/>
</svg>
