<?xml version="1.0" encoding="utf-8"?>
<!-- Generator: Adobe Illustrator 16.0.0, SVG Export Plug-In . SVG Version: 6.00 Build 0)  -->
<!DOCTYPE svg PUBLIC "-//W3C//DTD SVG 1.1//EN" "http://www.w3.org/Graphics/SVG/1.1/DTD/svg11.dtd">
<svg version="1.1" id="Capa_1" xmlns="http://www.w3.org/2000/svg" xmlns:xlink="http://www.w3.org/1999/xlink" x="0px" y="0px"
	 width="130px" height="126px" viewBox="0 0 130 126" enable-background="new 0 0 130 126" xml:space="preserve">
<g>
	<path fill="#FFFFFF" d="M39.017,32.553c1.558-3.202,2.252-7.003,2.176-10.743c-0.026-1.244,0.595-1.553,1.5-0.704l3.005,2.827
		c0.906,0.85,2.56,1.123,3.69,0.612l1.109-0.501c1.128-0.51,1.529-1.788,0.846-2.83C43.483,9.147,36.157,6.091,32.61,5.332
		c-1.214-0.264-3.24-0.354-4.475-0.246C21.31,5.683,13.173,11.509,9.83,18.394c-8.702,17.941-6.345,29.726,1.713,33.638
		C19.604,55.939,30.319,50.495,39.017,32.553z"/>
	<path fill="#FFFFFF" d="M121.296,18.396c-3.342-6.883-11.48-12.71-18.305-13.309c-1.238-0.107-3.261-0.015-4.475,0.249
		C94.968,6.094,87.638,9.147,79.78,21.218c-0.682,1.04-0.28,2.317,0.853,2.829l1.107,0.503c1.132,0.509,2.782,0.232,3.689-0.616
		l3.007-2.825c0.903-0.852,1.522-0.54,1.498,0.704c-0.074,3.737,0.619,7.542,2.175,10.742c8.7,17.942,19.412,23.388,27.473,19.479
		C127.642,48.122,129.993,36.338,121.296,18.396z"/>
	<path fill="#FFFFFF" d="M64.879,122.643h0.692c-0.124,0.008-0.23-0.015-0.348-0.008C65.104,122.628,65.003,122.65,64.879,122.643z"
		/>
	<path fill="#FFFFFF" d="M73.367,102.028c-2.257,0.112-5.792,0.272-8.608,0.338c-2.068,0.045-5.454-0.146-7.686-0.301
		c-1.242-0.077-2.353,0.842-2.4,2.09c-0.231,5.415,0.275,18.735,10.548,18.479C75.502,122.891,76,109.57,75.776,104.155
		C75.725,102.914,74.609,101.963,73.367,102.028z"/>
	<path fill="#FFFFFF" d="M96.92,48.467c-2.866-3.354-5.79-7.879-8.589-13.964c-0.467-1.008-0.863-2.07-1.193-3.171
		c-0.531-1.797-1.261-2.848-1.89-2.279c-0.625,0.568-3.615-0.155-6.684-1.616c-3.069-1.457-5.058-3.422-4.445-4.387l1.103-1.745
		c0.76-1.187,1.512-2.304,2.257-3.352c1.302-1.816-0.679-6.206-4.732-9.684c-4.065-3.473-10.842-3.466-14.753-0.015
		c-3.906,3.446-5.766,7.813-4.446,9.652c0.758,1.061,1.527,2.194,2.293,3.397c0,0,0.495,0.785,1.106,1.745
		c0.611,0.965-1.376,2.93-4.446,4.387c-3.067,1.459-6.059,2.185-6.688,1.616c-0.63-0.568-1.358,0.482-1.89,2.279
		c-0.326,1.101-0.727,2.163-1.19,3.171c-2.852,6.197-5.836,10.779-8.755,14.15C27.946,55.63,19.124,60.297,18.429,63.94
		c-0.428,2.237-0.653,4.465-0.653,6.67c0,17.264,9.218,25.384,23.001,28.916c12.041,3.085,22.32-1.892,22.32-7.202v-9.618
		c0-2.514-1.808-5.508-3.847-6.979c-1.591-1.147-2.983-2.392-3.186-3.287c-0.089-0.396-0.004-0.76,0.232-1.049
		c0.123-0.151,0.282-0.269,0.456-0.347c0.296-0.126,2.531-0.735,5.036-0.92c1.073-0.083,2.212-0.114,3.35-0.105h0.159
		c1.133-0.009,2.277,0.022,3.346,0.105c2.508,0.185,4.74,0.797,5.036,0.92c0.175,0.078,0.333,0.195,0.456,0.347
		c0.24,0.289,0.323,0.653,0.231,1.049c-0.201,0.896-1.596,2.14-3.187,3.287c-2.04,1.468-3.845,4.462-3.845,6.979
		c0,0,0,4.304,0,9.618c0,5.311,10.28,10.287,22.315,7.202c13.791-3.528,23.005-11.652,23.005-28.916c0-2.23-0.209-4.471-0.605-6.706
		C111.415,60.235,102.824,55.374,96.92,48.467z M55.07,50.271c-1.681,0-3.044-1.363-3.044-3.044s1.363-3.043,3.044-3.043
		c1.68,0,3.047,1.358,3.047,3.043C58.112,48.907,56.75,50.271,55.07,50.271z M77.786,50.271c-1.68,0-3.047-1.363-3.047-3.044
		s1.359-3.043,3.047-3.043c1.68,0,3.046,1.358,3.046,3.043C80.832,48.907,79.466,50.271,77.786,50.271z"/>
</g>
</svg>
