<?xml version="1.0" encoding="utf-8"?>
<!-- Generator: Adobe Illustrator 16.0.0, SVG Export Plug-In . SVG Version: 6.00 Build 0)  -->
<!DOCTYPE svg PUBLIC "-//W3C//DTD SVG 1.1//EN" "http://www.w3.org/Graphics/SVG/1.1/DTD/svg11.dtd">
<svg version="1.1" id="Capa_1" xmlns="http://www.w3.org/2000/svg" xmlns:xlink="http://www.w3.org/1999/xlink" x="0px" y="0px"
	 width="130px" height="126px" viewBox="0 0 130 126" enable-background="new 0 0 130 126" xml:space="preserve">
<g>
	<path fill="#FFFFFF" d="M68.45,27.26c3.443-10.761,12.635-17.437,20.537-14.913c7.905,2.526,11.522,13.294,8.087,24.056
		c-3.438,10.762-12.631,17.439-20.533,14.914C68.641,48.792,65.017,38.021,68.45,27.26z"/>
	<path fill="#FFFFFF" d="M114.792,40.232c-7.147-2.289-15.612,4.211-18.898,14.508c-3.293,10.301-0.162,20.502,6.986,22.784
		c7.149,2.286,15.61-4.212,18.903-14.511C125.071,52.714,121.942,42.515,114.792,40.232z"/>
	<path fill="#FFFFFF" d="M53.815,52.037c7.495-2.277,10.563-13.089,6.848-24.151c-3.714-11.065-12.81-18.19-20.306-15.912
		c-7.493,2.276-10.561,13.086-6.849,24.151C37.228,47.188,46.313,54.313,53.815,52.037z"/>
	<path fill="#FFFFFF" d="M34.582,54.632c-3.55-10.518-12.22-17.296-19.358-15.143c-7.143,2.155-10.049,12.427-6.5,22.943
		c3.553,10.517,12.218,17.296,19.358,15.14C35.22,75.419,38.134,65.149,34.582,54.632z"/>
	<path fill="#FFFFFF" d="M65.661,54.349h-1.544c0,0-30.576,5.036-30.425,40.25c-0.095,20.68,17.102,11.777,17.102,11.777
		s7.268-7.358,13.326-7.358l1.541-0.16c6.057,0,13.326,7.305,13.326,7.305s17.201,9.099,17.104-11.58
		C96.237,59.365,65.661,54.349,65.661,54.349z"/>
</g>
</svg>
