<?xml version="1.0" encoding="utf-8"?>
<!-- Generator: Adobe Illustrator 16.0.0, SVG Export Plug-In . SVG Version: 6.00 Build 0)  -->
<!DOCTYPE svg PUBLIC "-//W3C//DTD SVG 1.1//EN" "http://www.w3.org/Graphics/SVG/1.1/DTD/svg11.dtd">
<svg version="1.1" id="Capa_1" xmlns="http://www.w3.org/2000/svg" xmlns:xlink="http://www.w3.org/1999/xlink" x="0px" y="0px"
	 width="792px" height="260px" viewBox="249.5 278.5 792 260" enable-background="new 249.5 278.5 792 260" xml:space="preserve">
<g opacity="0.27">
	
		<linearGradient id="SVGID_1_" gradientUnits="userSpaceOnUse" x1="640.7344" y1="1536.6973" x2="733.1934" y2="1536.6973" gradientTransform="matrix(1 0 0 -1 -360.7148 1936.5947)">
		<stop  offset="0.3472" style="stop-color:#4B6D5C"/>
		<stop  offset="1" style="stop-color:#355B59"/>
	</linearGradient>
	<path fill="url(#SVGID_1_)" d="M372.478,368.604c0,23.825-19.486,43.386-43.383,43.386h-41.25v60.452
		c0,1.351-0.783,2.134-2.134,2.134h-3.557c-1.351,0-2.134-0.783-2.134-2.134V327.354c0-1.352,0.783-2.135,2.134-2.135h5.69h41.25
		C352.992,325.221,372.478,344.707,372.478,368.604z M329.095,404.733c19.559,0,35.562-16.287,35.562-36.131
		c0-19.912-16.003-36.129-35.562-36.129h-41.25v72.262h41.25V404.733z"/>
	
		<linearGradient id="SVGID_2_" gradientUnits="userSpaceOnUse" x1="733.835" y1="1515.3594" x2="845.4932" y2="1515.3594" gradientTransform="matrix(1 0 0 -1 -360.7148 1936.5947)">
		<stop  offset="0.3472" style="stop-color:#4B6D5C"/>
		<stop  offset="1" style="stop-color:#355B59"/>
	</linearGradient>
	<path fill="url(#SVGID_2_)" d="M373.12,421.236c0-31.436,24.821-55.615,55.829-55.615s55.829,24.181,55.829,55.615
		c0,31.434-24.821,55.614-55.829,55.614C397.941,476.852,373.12,452.671,373.12,421.236z M477.24,421.234
		c0-27.24-21.193-48.507-48.291-48.507s-48.291,21.267-48.291,48.507c0,27.239,21.193,48.506,48.291,48.506
		C456.046,469.74,477.24,448.475,477.24,421.234z"/>
	
		<linearGradient id="SVGID_3_" gradientUnits="userSpaceOnUse" x1="856.5889" y1="1495.5176" x2="971.376" y2="1495.5176" gradientTransform="matrix(1 0 0 -1 -360.7148 1936.5947)">
		<stop  offset="0.3472" style="stop-color:#4B6D5C"/>
		<stop  offset="1" style="stop-color:#355B59"/>
	</linearGradient>
	<path fill="url(#SVGID_3_)" d="M610.661,421.234c0,31.791-23.043,56.327-50.994,56.327c-14.276,0-24.656-4.816-31.789-12.95v47.303
		c0,3.413-1.92,5.334-5.334,5.334h-21.336c-3.414,0-5.334-1.921-5.334-5.334V373.228c0-3.413,1.92-5.334,5.334-5.334h21.336
		c3.414,0,5.334,1.921,5.334,5.334v4.631c7.133-8.135,17.513-12.951,31.789-12.951C587.618,364.906,610.661,389.443,610.661,421.234
		z M578.656,421.234c0-16.003-10.668-26.03-25.391-26.03c-14.722,0-25.39,10.027-25.39,26.03c0,16.002,10.668,26.029,25.39,26.029
		C567.988,447.264,578.656,437.236,578.656,421.234z"/>
	
		<linearGradient id="SVGID_4_" gradientUnits="userSpaceOnUse" x1="973.5049" y1="1515.3613" x2="1086.5879" y2="1515.3613" gradientTransform="matrix(1 0 0 -1 -360.7148 1936.5947)">
		<stop  offset="0.3472" style="stop-color:#4B6D5C"/>
		<stop  offset="1" style="stop-color:#355B59"/>
	</linearGradient>
	<path fill="url(#SVGID_4_)" d="M612.79,421.234c0-31.792,25.177-56.328,56.541-56.328c31.365,0,56.542,24.537,56.542,56.328
		s-25.177,56.327-56.542,56.327C637.966,477.563,612.79,453.025,612.79,421.234z M693.868,421.234
		c0-15.149-10.668-25.178-24.537-25.178c-13.868,0-24.537,10.027-24.537,25.178c0,15.147,10.668,25.177,24.537,25.177
		S693.868,436.383,693.868,421.234z"/>
	
		<linearGradient id="SVGID_5_" gradientUnits="userSpaceOnUse" x1="1094.0527" y1="1515.3613" x2="1126.0566" y2="1515.3613" gradientTransform="matrix(1 0 0 -1 -360.7148 1936.5947)">
		<stop  offset="0.3472" style="stop-color:#4B6D5C"/>
		<stop  offset="1" style="stop-color:#355B59"/>
	</linearGradient>
	<path fill="url(#SVGID_5_)" d="M733.338,469.241v-96.015c0-3.413,1.92-5.334,5.334-5.334h21.336c3.414,0,5.334,1.921,5.334,5.334
		v96.015c0,3.413-1.92,5.334-5.334,5.334h-21.336C735.258,474.575,733.338,472.654,733.338,469.241z"/>
	
		<linearGradient id="SVGID_6_" gradientUnits="userSpaceOnUse" x1="1138.8574" y1="1516.8535" x2="1232.7383" y2="1516.8535" gradientTransform="matrix(1 0 0 -1 -360.7148 1936.5947)">
		<stop  offset="0.3472" style="stop-color:#4B6D5C"/>
		<stop  offset="1" style="stop-color:#355B59"/>
	</linearGradient>
	<path fill="url(#SVGID_6_)" d="M872.023,406.938v62.303c0,3.413-1.922,5.334-5.336,5.334h-21.336c-3.414,0-5.334-1.921-5.334-5.334
		v-59.528c0-10.668-6.188-15.362-14.295-15.362c-9.602,0-15.575,5.334-15.575,17.923v56.969c0,3.413-1.921,5.334-5.334,5.334
		h-21.337c-3.413,0-5.334-1.921-5.334-5.334v-96.015c0-3.413,1.921-5.334,5.334-5.334h21.337c3.413,0,5.334,1.921,5.334,5.334v4.41
		c5.014-7.415,14.098-12.73,27.737-12.73C857.727,364.906,872.023,380.269,872.023,406.938z"/>
	
		<linearGradient id="SVGID_7_" gradientUnits="userSpaceOnUse" x1="1234.2275" y1="1532.4287" x2="1300.3701" y2="1532.4287" gradientTransform="matrix(1 0 0 -1 -360.7148 1936.5947)">
		<stop  offset="0.3472" style="stop-color:#4B6D5C"/>
		<stop  offset="1" style="stop-color:#355B59"/>
	</linearGradient>
	<path fill="url(#SVGID_7_)" d="M939.655,373.228v20.057c0,3.414-1.92,5.334-5.334,5.334h-11.734v70.624
		c0,3.413-1.92,5.334-5.334,5.334h-21.337c-3.413,0-5.334-1.921-5.334-5.334v-70.624h-11.735c-3.413,0-5.334-1.92-5.334-5.334
		v-20.057c0-3.413,1.921-5.334,5.334-5.334h11.735V339.09c0-3.415,1.921-5.334,5.334-5.334h21.337c3.414,0,5.334,1.92,5.334,5.334
		v28.804h11.734C937.735,367.894,939.655,369.813,939.655,373.228z"/>
	
		<linearGradient id="SVGID_8_" gradientUnits="userSpaceOnUse" x1="1299.6768" y1="1515.3613" x2="1388.0625" y2="1515.3613" gradientTransform="matrix(1 0 0 -1 -360.7148 1936.5947)">
		<stop  offset="0.3472" style="stop-color:#4B6D5C"/>
		<stop  offset="1" style="stop-color:#355B59"/>
	</linearGradient>
	<path fill="url(#SVGID_8_)" d="M1027.348,442.57c0,24.537-20.908,34.991-44.379,34.991c-21.764,0-41.393-9.814-43.953-32.432
		c-0.427-3.627,1.707-5.548,5.121-5.548h20.909c3.2,0,4.267,1.707,5.761,4.479c1.707,3.629,5.762,5.763,12.162,5.763
		c8.961,0,12.375-2.987,12.375-7.255c0-15.362-55.688-1.28-55.688-42.672c0-24.111,20.908-34.992,43.313-34.992
		c19.843,0,39.259,9.813,41.818,32.431c0.428,3.628-1.706,5.548-5.12,5.548h-20.909c-3.201,0-4.268-1.707-5.762-4.693
		c-1.493-3.414-5.12-5.548-10.027-5.548c-7.895,0-11.309,2.987-11.309,7.255C971.661,415.687,1027.348,400.965,1027.348,442.57z"/>
	<g>
		
			<linearGradient id="SVGID_9_" gradientUnits="userSpaceOnUse" x1="1111.7646" y1="1618.0195" x2="1128.6406" y2="1618.0195" gradientTransform="matrix(1 0 0 -1 -360.7148 1936.5947)">
			<stop  offset="0.3472" style="stop-color:#4B6D5C"/>
			<stop  offset="1" style="stop-color:#355B59"/>
		</linearGradient>
		<path fill="url(#SVGID_9_)" d="M751.751,316.103c1.86-5.816,6.83-9.425,11.102-8.061c4.272,1.365,6.229,7.186,4.371,13.003
			s-6.828,9.427-11.1,8.063C751.854,327.742,749.895,321.92,751.751,316.103z"/>
		
			<linearGradient id="SVGID_10_" gradientUnits="userSpaceOnUse" x1="1126.5918" y1="1603.4004" x2="1142.002" y2="1603.4004" gradientTransform="matrix(1 0 0 -1 -360.7148 1936.5947)">
			<stop  offset="0.3472" style="stop-color:#4B6D5C"/>
			<stop  offset="1" style="stop-color:#355B59"/>
		</linearGradient>
		<path fill="url(#SVGID_10_)" d="M776.801,323.115c-3.862-1.237-8.438,2.275-10.216,7.843c-1.779,5.567-0.088,11.082,3.776,12.315
			c3.864,1.235,8.438-2.276,10.219-7.845C782.359,329.862,780.667,324.349,776.801,323.115z"/>
		
			<linearGradient id="SVGID_11_" gradientUnits="userSpaceOnUse" x1="1092.7256" y1="1617.9277" x2="1109.1094" y2="1617.9277" gradientTransform="matrix(1 0 0 -1 -360.7148 1936.5947)">
			<stop  offset="0.3472" style="stop-color:#4B6D5C"/>
			<stop  offset="1" style="stop-color:#355B59"/>
		</linearGradient>
		<path fill="url(#SVGID_11_)" d="M743.84,329.496c4.052-1.23,5.71-7.074,3.701-13.054c-2.008-5.981-6.924-9.833-10.977-8.603
			c-4.051,1.23-5.708,7.074-3.701,13.054C734.874,326.876,739.786,330.727,743.84,329.496z"/>
		
			<linearGradient id="SVGID_12_" gradientUnits="userSpaceOnUse" x1="1079.3623" y1="1603.5889" x2="1094.9775" y2="1603.5889" gradientTransform="matrix(1 0 0 -1 -360.7148 1936.5947)">
			<stop  offset="0.3472" style="stop-color:#4B6D5C"/>
			<stop  offset="1" style="stop-color:#355B59"/>
		</linearGradient>
		<path fill="url(#SVGID_12_)" d="M733.444,330.899c-1.919-5.687-6.605-9.351-10.466-8.187c-3.859,1.165-5.432,6.718-3.514,12.401
			c1.921,5.686,6.605,9.35,10.465,8.185C733.789,342.136,735.364,336.584,733.444,330.899z"/>
		
			<linearGradient id="SVGID_13_" gradientUnits="userSpaceOnUse" x1="1093.6777" y1="1591.2715" x2="1127.4072" y2="1591.2715" gradientTransform="matrix(1 0 0 -1 -360.7148 1936.5947)">
			<stop  offset="0.3472" style="stop-color:#4B6D5C"/>
			<stop  offset="1" style="stop-color:#355B59"/>
		</linearGradient>
		<path fill="url(#SVGID_13_)" d="M750.245,330.746h-0.836c0,0-16.527,2.722-16.446,21.757c-0.051,11.179,9.244,6.367,9.244,6.367
			s3.929-3.979,7.204-3.979l0.834-0.086c3.271,0,7.203,3.948,7.203,3.948s9.298,4.918,9.244-6.26
			C766.771,333.457,750.245,330.746,750.245,330.746z"/>
	</g>
</g>
<g>
	<path fill="#FFFFFF" d="M363.276,349.369c0,23.826-19.486,43.385-43.383,43.385h-41.25v60.452c0,1.352-0.783,2.135-2.134,2.135
		h-3.557c-1.351,0-2.134-0.783-2.134-2.135V308.12c0-1.352,0.783-2.134,2.134-2.134h5.69h41.25
		C343.79,305.986,363.276,325.472,363.276,349.369z M319.893,385.498c19.559,0,35.562-16.286,35.562-36.129
		c0-19.914-16.002-36.129-35.562-36.129h-41.25v72.26h41.25V385.498z"/>
	<path fill="#FFFFFF" d="M363.918,402.002c0-31.435,24.821-55.616,55.829-55.616s55.829,24.182,55.829,55.616
		s-24.821,55.614-55.829,55.614S363.918,433.437,363.918,402.002z M468.038,402c0-27.24-21.193-48.506-48.291-48.506
		c-27.098,0-48.29,21.265-48.29,48.506c0,27.24,21.194,48.505,48.291,48.505C446.845,450.505,468.038,429.239,468.038,402z"/>
	<path fill="#FFFFFF" d="M601.458,402c0,31.791-23.043,56.328-50.994,56.328c-14.276,0-24.656-4.817-31.789-12.95v47.302
		c0,3.414-1.92,5.334-5.334,5.334h-21.336c-3.414,0-5.334-1.92-5.334-5.334V353.993c0-3.414,1.92-5.334,5.334-5.334h21.336
		c3.414,0,5.334,1.92,5.334,5.334v4.63c7.133-8.133,17.513-12.951,31.789-12.951C578.416,345.671,601.458,370.208,601.458,402z
		 M569.454,402c0-16.002-10.668-26.03-25.39-26.03c-14.723,0-25.391,10.028-25.391,26.03s10.668,26.031,25.391,26.031
		C558.786,428.031,569.454,418.002,569.454,402z"/>
	<path fill="#FFFFFF" d="M603.588,402c0-31.792,25.177-56.328,56.542-56.328s56.541,24.537,56.541,56.328
		s-25.176,56.328-56.541,56.328C628.765,458.327,603.588,433.79,603.588,402z M684.667,402c0-15.149-10.668-25.177-24.537-25.177
		S635.593,386.851,635.593,402s10.668,25.177,24.537,25.177S684.667,417.148,684.667,402z"/>
	<path fill="#FFFFFF" d="M724.137,450.007v-96.014c0-3.414,1.92-5.334,5.334-5.334h21.336c3.414,0,5.334,1.92,5.334,5.334v96.014
		c0,3.413-1.92,5.334-5.334,5.334h-21.336C726.057,455.341,724.137,453.42,724.137,450.007z"/>
	<path fill="#FFFFFF" d="M862.821,387.704v62.303c0,3.413-1.92,5.334-5.334,5.334h-21.336c-3.414,0-5.334-1.921-5.334-5.334v-59.529
		c0-10.668-6.188-15.361-14.295-15.361c-9.603,0-15.576,5.334-15.576,17.922v56.969c0,3.413-1.92,5.334-5.334,5.334h-21.336
		c-3.414,0-5.334-1.921-5.334-5.334v-96.014c0-3.414,1.92-5.334,5.334-5.334h21.336c3.414,0,5.334,1.92,5.334,5.334v4.41
		c5.014-7.415,14.098-12.731,27.737-12.731C848.526,345.671,862.821,361.034,862.821,387.704z"/>
	<path fill="#FFFFFF" d="M930.454,353.993v20.056c0,3.414-1.92,5.334-5.334,5.334h-11.734v70.624c0,3.413-1.92,5.334-5.334,5.334
		h-21.338c-3.412,0-5.334-1.921-5.334-5.334v-70.624h-11.733c-3.414,0-5.334-1.92-5.334-5.334v-20.056
		c0-3.414,1.92-5.334,5.334-5.334h11.733v-28.805c0-3.413,1.922-5.334,5.334-5.334h21.338c3.414,0,5.334,1.921,5.334,5.334v28.805
		h11.734C928.534,348.659,930.454,350.579,930.454,353.993z"/>
	<path fill="#FFFFFF" d="M1018.146,423.336c0,24.536-20.909,34.991-44.379,34.991c-21.764,0-41.393-9.814-43.953-32.433
		c-0.428-3.627,1.707-5.547,5.121-5.547h20.908c3.201,0,4.269,1.707,5.762,4.48c1.707,3.627,5.761,5.762,12.162,5.762
		c8.961,0,12.375-2.988,12.375-7.255c0-15.362-55.688-1.28-55.688-42.673c0-24.11,20.908-34.992,43.313-34.992
		c19.843,0,39.259,9.815,41.818,32.431c0.428,3.627-1.707,5.548-5.121,5.548h-20.908c-3.201,0-4.268-1.707-5.762-4.694
		c-1.494-3.413-5.121-5.547-10.027-5.547c-7.895,0-11.309,2.986-11.309,7.254C962.459,396.452,1018.146,381.73,1018.146,423.336z"/>
	<g>
		<path fill="#FFFFFF" d="M742.549,296.868c1.861-5.816,6.83-9.425,11.103-8.061c4.272,1.366,6.229,7.186,4.37,13.003
			c-1.857,5.817-6.827,9.427-11.1,8.062C742.653,308.508,740.694,302.686,742.549,296.868z"/>
		
			<ellipse transform="matrix(-0.9526 -0.3043 0.3043 -0.9526 1396.9978 845.603)" fill="#FFFFFF" cx="764.39" cy="313.944" rx="7.346" ry="10.581"/>
		<path fill="#FFFFFF" d="M734.639,310.262c4.052-1.229,5.709-7.075,3.701-13.055c-2.008-5.981-6.924-9.833-10.977-8.602
			c-4.052,1.23-5.709,7.074-3.701,13.055C725.672,307.641,730.584,311.492,734.639,310.262z"/>
		<path fill="#FFFFFF" d="M724.243,311.665c-1.92-5.686-6.605-9.35-10.465-8.186c-3.861,1.165-5.433,6.718-3.515,12.402
			c1.92,5.686,6.605,9.351,10.465,8.185C724.586,322.901,726.163,317.349,724.243,311.665z"/>
		<path fill="#FFFFFF" d="M741.042,311.512h-0.834c0,0-16.527,2.723-16.447,21.757c-0.051,11.179,9.244,6.366,9.244,6.366
			s3.93-3.978,7.205-3.978l0.832-0.086c3.273,0,7.205,3.947,7.205,3.947s9.297,4.918,9.244-6.26
			C757.571,314.223,741.042,311.512,741.042,311.512z"/>
	</g>
</g>
</svg>
