<?xml version="1.0" encoding="utf-8"?>
<!-- Generator: Adobe Illustrator 16.0.0, SVG Export Plug-In . SVG Version: 6.00 Build 0)  -->
<!DOCTYPE svg PUBLIC "-//W3C//DTD SVG 1.1//EN" "http://www.w3.org/Graphics/SVG/1.1/DTD/svg11.dtd">
<svg version="1.1" id="Capa_1" xmlns="http://www.w3.org/2000/svg" xmlns:xlink="http://www.w3.org/1999/xlink" x="0px" y="0px"
	 width="139px" height="135px" viewBox="0 0 139 135" enable-background="new 0 0 139 135" xml:space="preserve">
<g>
	<circle fill="#008878" cx="70.211" cy="68.778" r="61.923"/>
</g>
<path fill="#F0F1F2" d="M85.106,80.053c-2.863,0-5.49,0.986-7.58,2.626l-15.455-9.272c0.123-0.695,0.198-1.407,0.198-2.137
	c0-0.885-0.098-1.745-0.275-2.577L77.88,58.366c2.03,1.479,4.522,2.362,7.227,2.362c6.791,0,12.297-5.505,12.297-12.297
	c0-6.791-5.506-12.297-12.297-12.297c-6.792,0-12.297,5.506-12.297,12.297c0,0.884,0.098,1.745,0.275,2.576L57.198,61.334
	c-2.03-1.479-4.522-2.362-7.226-2.362c-6.792,0-12.297,5.506-12.297,12.298c0,6.79,5.505,12.296,12.297,12.296
	c2.863,0,5.49-0.987,7.58-2.628l15.455,9.273c-0.122,0.695-0.197,1.407-0.197,2.139c0,6.791,5.505,12.297,12.297,12.297
	c6.791,0,12.297-5.506,12.297-12.297C97.403,85.558,91.897,80.053,85.106,80.053z"/>
</svg>
